<svg width="24" height="24" viewBox="0 0 24 24" fill="none" xmlns="http://www.w3.org/2000/svg">
<path d="M11.2181 0.556725C11.4986 -0.185574 12.5014 -0.185575 12.7819 0.556724L15.3956 7.47264C15.5155 7.78997 15.7996 8.0062 16.1247 8.02763L23.2106 8.49471C23.9711 8.54484 24.281 9.54401 23.6938 10.0529L18.2233 14.7943C17.9723 15.0118 17.8638 15.3617 17.9448 15.6923L19.7104 22.8968C19.8999 23.6701 19.0887 24.2876 18.4452 23.8599L12.4506 19.8743C12.1756 19.6914 11.8244 19.6914 11.5494 19.8743L5.55476 23.8599C4.91134 24.2876 4.10006 23.6701 4.28957 22.8968L6.05521 15.6923C6.13622 15.3617 6.02772 15.0118 5.77671 14.7943L0.306191 10.0529C-0.280971 9.54401 0.0289128 8.54484 0.789451 8.49471L7.8753 8.02763C8.20043 8.0062 8.48449 7.78997 8.60442 7.47264L11.2181 0.556725Z" fill="#F5C1BC"/>
</svg>
