<svg width="24" height="24" viewBox="0 0 24 24" fill="none" xmlns="http://www.w3.org/2000/svg">
<path d="M12.3142 0.733482L14.9279 7.6494C15.1134 8.14034 15.561 8.49155 16.0918 8.52654L23.1777 8.99362C23.3196 9.00298 23.4322 9.09569 23.48 9.24988C23.5282 9.40513 23.491 9.56702 23.3663 9.67508L17.8958 14.4164C17.4987 14.7606 17.3349 15.3042 17.4592 15.8113L19.2248 23.0159C19.2692 23.197 19.1988 23.3461 19.0873 23.4309C18.9787 23.5136 18.8476 23.527 18.7221 23.4435L12.7274 19.4579C12.2847 19.1635 11.7153 19.1635 11.2725 19.4579L5.27793 23.4435C5.15237 23.527 5.02128 23.5136 4.91266 23.4309C4.80121 23.3461 4.73082 23.197 4.7752 23.0159L6.54084 15.8113C6.66511 15.3042 6.5013 14.7606 6.10419 14.4164L0.633666 9.67508C0.508996 9.56702 0.471845 9.40513 0.519993 9.24988C0.567813 9.0957 0.680355 9.00298 0.822338 8.99362L7.90819 8.52654C8.43902 8.49155 8.8866 8.14034 9.07213 7.6494L11.6858 0.733483C11.8034 0.422172 12.1966 0.422173 12.3142 0.733482Z" stroke="#F5C1BC"/>
</svg>
