<svg width="93" height="93" viewBox="0 0 93 93" fill="none" xmlns="http://www.w3.org/2000/svg">
<g clip-path="url(#clip0)">
<path d="M29.839 63.4869L31.1799 61.9802C30.2002 58.8493 30.1976 55.4025 31.244 52.2197C23.5376 56.4536 13.7813 54.7664 7.95724 47.8779C3.63153 51.3085 0.853516 56.6096 0.853516 62.5472V89.2931C0.853516 90.7695 2.05173 91.9677 3.52811 91.9677H25.5632C25.2654 91.1315 25.1032 90.231 25.1032 89.2931V75.9202C25.1032 71.3341 26.7846 66.9175 29.839 63.4869Z" fill="#F5C1BC"/>
<path d="M22.2504 49.1739C29.6361 49.1739 35.6234 43.1866 35.6234 35.8009C35.6234 28.4153 29.6361 22.428 22.2504 22.428C14.8647 22.428 8.87744 28.4153 8.87744 35.8009C8.87744 43.1866 14.8647 49.1739 22.2504 49.1739Z" fill="#F5C1BC"/>
<path d="M85.0427 47.8779C79.2081 54.7789 69.445 56.4475 61.7559 52.2179C62.8007 55.4071 62.8009 58.845 61.8201 61.9802L63.1609 63.4869C66.2153 66.9175 67.8967 71.3341 67.8967 75.9202V89.2931C67.8967 90.231 67.7345 91.1315 67.4367 91.9677H89.4718C90.9482 91.9677 92.1464 90.7695 92.1464 89.2931V62.5472C92.1464 56.6096 89.3684 51.3085 85.0427 47.8779Z" fill="#F5C1BC"/>
<path d="M70.7494 49.1739C78.1351 49.1739 84.1224 43.1866 84.1224 35.8009C84.1224 28.4153 78.1351 22.428 70.7494 22.428C63.3637 22.428 57.3765 28.4153 57.3765 35.8009C57.3765 43.1866 63.3637 49.1739 70.7494 49.1739Z" fill="#F5C1BC"/>
<path d="M46.4997 73.2458C41.3574 73.2458 36.7731 70.8154 33.8346 67.0425C31.7306 69.4068 30.4521 72.5165 30.4521 75.9203V89.2933C30.4521 90.7697 31.6504 91.9679 33.1267 91.9679H59.8727C61.3491 91.9679 62.5473 90.7697 62.5473 89.2933V75.9203C62.5473 72.5165 61.2688 69.4068 59.1648 67.0425C56.2263 70.8154 51.6421 73.2458 46.4997 73.2458Z" fill="#F5C1BC"/>
<path d="M46.4996 67.896C52.4082 67.896 57.198 63.1062 57.198 57.1976C57.198 51.2891 52.4082 46.4993 46.4996 46.4993C40.5911 46.4993 35.8013 51.2891 35.8013 57.1976C35.8013 63.1062 40.5911 67.896 46.4996 67.896Z" fill="#F5C1BC"/>
<path d="M38.8896 22.6055C41.9432 25.4277 44.9703 27.3021 45.0977 27.3805C45.9576 27.9097 47.0419 27.9097 47.9019 27.3805C48.0294 27.3021 51.0563 25.4277 54.11 22.6055C58.5255 18.5248 60.7644 14.5576 60.7644 10.8144C60.7644 2.3135 52.3109 -1.67682 46.4999 3.04562C40.6758 -1.68734 32.2354 2.33596 32.2354 10.8144C32.2354 14.5576 34.4742 18.5248 38.8896 22.6055Z" fill="#F5C1BC"/>
</g>
<defs>
<clipPath id="clip0">
<rect width="91.2928" height="91.2928" fill="white" transform="translate(0.853516 0.853516)"/>
</clipPath>
</defs>
</svg>
