<svg width="115" height="115" viewBox="0 0 115 115" fill="none" xmlns="http://www.w3.org/2000/svg">
<path fill-rule="evenodd" clip-rule="evenodd" d="M15.8987 11.7752L11.7752 15.8987C11.0161 16.6578 11.0161 17.8886 11.7752 18.6477L19.564 26.4365L26.4365 19.564L18.6477 11.7752C17.8886 11.0161 16.6578 11.0161 15.8987 11.7752ZM25.5201 32.3926L21.8548 28.7273L28.7273 21.8548L32.3926 25.5201L25.5201 32.3926ZM23.3349 34.789L23.2293 34.6834L9.48441 20.9385C7.46012 18.9142 7.46012 15.6322 9.48442 13.6079L13.6079 9.4844C15.6322 7.4601 18.9142 7.4601 20.9385 9.4844L34.6834 23.2293L34.789 23.3349C36.7979 21.9574 39.2934 21.4955 41.5988 22.4329C45.4533 24.0002 50.9824 27.0161 55.2442 32.4491C57.4564 35.2692 59.6416 38.4262 61.8406 41.6032C65.5145 46.9112 69.2272 52.2751 73.1692 56.2171C80.3478 63.3957 89.7422 70.4049 97.2228 75.5489C104.583 80.6102 108.407 89.6263 106.329 98.3137C105.38 102.282 102.282 105.38 98.3138 106.329C89.6263 108.407 80.6102 104.583 75.549 97.2228C70.405 89.7421 63.3957 80.3477 56.2171 73.1691C52.2751 69.2271 46.9113 65.5145 41.6033 61.8405C38.4263 59.6415 35.2693 57.4563 32.4492 55.2442C27.0162 50.9823 24.0003 45.4532 22.433 41.5988C21.4956 39.2933 21.9575 36.7979 23.3349 34.789ZM49.7462 41.1543C49.4125 40.7464 49.0497 40.3445 48.6574 39.9523C48.5807 39.8755 48.5036 39.7999 48.4261 39.7254L40.1836 47.9679C40.2581 48.0453 40.3338 48.1225 40.4105 48.1992C40.8028 48.5915 41.2047 48.9543 41.6125 49.288L49.7462 41.1543ZM44.3914 51.0908C45.371 51.5741 46.3369 51.8989 47.2396 52.069C49.3992 52.4759 50.8428 51.9699 51.6355 51.1773C52.4282 50.3846 52.9341 48.9409 52.5273 46.7814C52.3572 45.8786 52.0324 44.9128 51.549 43.9331L44.3914 51.0908ZM41.8283 36.0824C43.0916 36.3204 44.4786 36.8615 45.854 37.7159L38.1741 45.3958C37.3198 44.0203 36.7787 42.6334 36.5407 41.3701C36.1338 39.2105 36.6398 37.7669 37.4324 36.9742C38.2251 36.1815 39.6688 35.6756 41.8283 36.0824ZM53.9263 53.4681C57.4688 49.9256 56.1355 42.8487 50.9483 37.6614C45.761 32.4742 38.6841 31.1409 35.1416 34.6834C31.5991 38.2259 32.9324 45.3028 38.1197 50.49C43.3069 55.6773 50.3838 57.0106 53.9263 53.4681Z" fill="#F5C1BC"/>
</svg>
