<svg width="62" height="15" viewBox="0 0 62 15" fill="none" xmlns="http://www.w3.org/2000/svg">
<path d="M12.6154 10.263C10.6126 11.7042 8.25844 12.3408 6.15658 13.6544C5.60952 11.4746 4.22016 10.3627 2.71005 8.82491C0.696858 6.77004 -1.05357 1.34402 3.28822 0.803767C4.4478 0.65981 5.55648 1.33594 6.40275 2.14424C7.1982 2.9089 7.83703 3.82578 8.29675 4.82602C8.96343 2.49213 11.2928 0.747289 13.6977 0.802096C14.125 0.815126 14.5632 0.869315 14.9389 1.06808C15.2887 1.25175 15.5652 1.53883 15.7985 1.8772C16.7446 3.23154 16.6803 5.13046 15.9462 6.60993C15.198 8.10202 14.0008 9.28282 12.6154 10.263Z" fill="#F5C1BC"/>
<path d="M35.2577 10.263C33.255 11.7042 30.9008 12.3408 28.7989 13.6544C28.2519 11.4746 26.8625 10.3627 25.3524 8.82491C23.3392 6.77004 21.5888 1.34402 25.9305 0.803767C27.0901 0.65981 28.1988 1.33594 29.0451 2.14424C29.8405 2.9089 30.4794 3.82578 30.9391 4.82602C31.6058 2.49213 33.9351 0.747289 36.34 0.802096C36.7674 0.815126 37.2055 0.869315 37.5812 1.06808C37.931 1.25175 38.2076 1.53883 38.4408 1.8772C39.387 3.23154 39.3226 5.13046 38.5886 6.60993C37.8403 8.10202 36.6431 9.28282 35.2577 10.263Z" fill="#F5C1BC"/>
<path d="M57.8998 10.263C55.8971 11.7042 53.5429 12.3408 51.441 13.6544C50.8939 11.4746 49.5046 10.3627 47.9945 8.82491C45.9813 6.77004 44.2309 1.34402 48.5726 0.803767C49.7322 0.65981 50.8409 1.33594 51.6872 2.14424C52.4826 2.9089 53.1215 3.82578 53.5812 4.82602C54.2478 2.49213 56.5772 0.747289 58.9821 0.802096C59.4095 0.815126 59.8476 0.869315 60.2233 1.06808C60.5731 1.25175 60.8497 1.53883 61.0829 1.8772C62.029 3.23154 61.9647 5.13046 61.2306 6.60993C60.4824 8.10202 59.2852 9.28282 57.8998 10.263Z" fill="#F5C1BC"/>
</svg>
