<svg width="95" height="73" viewBox="0 0 95 73" fill="none" xmlns="http://www.w3.org/2000/svg">
<path d="M93.2917 43.722L84.7281 6.94871C84.1202 4.51686 82.4622 2.5187 80.1832 1.47165C77.9039 0.419114 75.3112 0.462062 73.0669 1.58679L68.2138 4.01316C66.8586 4.69085 66.3096 6.33791 66.9871 7.69311C67.6675 9.0483 69.3144 9.58928 70.667 8.91982L75.5201 6.49345C76.2647 6.1239 77.1299 6.10781 77.8931 6.45324C78.6538 6.80414 79.2055 7.47087 79.3982 8.23701L86.6654 39.4443C86.4625 39.4293 86.2673 39.3774 86.0619 39.3774H58.3043C55.8295 39.3774 53.5101 40.4754 51.9407 42.3904C51.2405 43.2436 50.7611 44.2217 50.453 45.2474C48.504 44.8175 46.4965 44.8175 44.5473 45.2474C44.239 44.2217 43.7596 43.2434 43.0596 42.3904C41.4901 40.4754 39.1706 39.3774 36.696 39.3774H8.93804C8.73261 39.3774 8.53724 39.4293 8.33455 39.4443L15.591 8.28234C15.7944 7.47087 16.3464 6.80396 17.1068 6.45305C17.8702 6.10489 18.73 6.12097 19.4798 6.49326L24.333 8.91963C25.6881 9.58928 27.3327 9.04812 28.0129 7.69292C28.6906 6.33773 28.1414 4.69048 26.7862 4.01298L21.9333 1.58661C19.6915 0.46718 17.0962 0.42423 14.817 1.47147C12.5378 2.51852 10.8797 4.51686 10.2611 6.99422L1.70791 43.7228C0.80798 45.3927 0.48924 47.321 0.87085 49.2203L3.27858 61.2646C4.5561 67.6524 10.2126 72.2885 16.7263 72.2885H28.9072C35.4207 72.2885 41.0774 67.6526 42.3549 61.2646L44.4015 51.0267C46.3978 50.2105 48.602 50.2105 50.5985 51.0267L52.6451 61.2646C53.9226 67.6524 59.5791 72.2885 66.0928 72.2885H78.2736C84.7871 72.2885 90.4439 67.6526 91.7214 61.2646L94.1291 49.2203C94.5107 47.3207 94.192 45.3919 93.2917 43.722Z" fill="#F5C1BC"/>
</svg>
