<svg width="95" height="95" viewBox="0 0 95 95" fill="none" xmlns="http://www.w3.org/2000/svg">
<g clip-path="url(#clip0)">
<path d="M93.5699 22.3849L80.1574 31.103C77.2664 32.9823 73.8138 33.7329 70.4334 33.2163C60.3112 31.6705 51.148 27.918 43.3337 22.5585C41.5738 21.3525 40.6283 19.2229 41.0762 16.9985C41.6108 14.3439 43.9853 12.6512 46.5016 12.6512H58.6989C59.5263 12.6512 60.2517 12.0305 60.3096 11.2051C60.3739 10.29 59.654 9.53204 58.7539 9.53204H46.5365C42.8364 9.53204 39.4755 11.8402 38.2961 15.3493C37.3368 18.2041 37.9276 21.2689 39.7993 23.5195C40.3813 24.2192 40.237 25.2676 39.4911 25.7891L19.741 39.6008C17.3801 41.2524 14.2046 40.8219 12.3602 38.6417C10.4946 36.4368 10.6544 33.1324 12.7209 31.1186L40.5809 3.95848C43.2049 1.40076 46.9264 0.252519 50.5369 0.88415L79.781 6.01518C80.9019 6.21207 82.0463 5.90601 82.9216 5.17885L87.8284 1.0752C88.7324 0.321921 90.1167 0.802467 90.355 1.95636L94.2461 20.761C94.3767 21.3907 94.1079 22.036 93.5699 22.3849Z" fill="#F5C1BC"/>
<path d="M82.2785 63.8814L54.4186 91.0416C51.7946 93.5993 48.073 94.7475 44.4626 94.1159L15.2184 88.9849C14.0975 88.788 12.9531 89.094 12.0778 89.8212L7.171 93.9249C6.27326 94.675 4.88387 94.203 4.64447 93.0437L0.753314 74.239C0.622699 73.6093 0.891727 72.9641 1.42978 72.6151L14.8422 63.897C17.7333 62.0177 21.1877 61.2672 24.5662 61.7838C34.6082 63.3173 43.8617 67.0595 51.6678 72.4416C53.6239 73.7784 54.6014 76.3066 53.7011 78.7852C53.0502 80.7362 50.9691 82.3488 48.4999 82.3488H36.2475C35.3858 82.3488 34.6879 83.0487 34.6879 83.9084C34.6879 84.7683 35.384 85.468 36.2475 85.468H48.4648C52.165 85.468 55.5239 83.1598 56.7033 79.6508C57.666 76.7926 57.0714 73.7279 55.2015 71.4793C54.6195 70.7797 54.764 69.7312 55.5097 69.2098L75.2585 55.3993C77.6115 53.7539 80.7852 54.1672 82.6392 56.3584C84.5051 58.5633 84.345 61.8676 82.2785 63.8814Z" fill="#F5C1BC"/>
<path d="M40.3666 56.2856C43.4203 59.1079 46.4474 60.9822 46.5747 61.0607C47.4347 61.5899 48.519 61.5899 49.3789 61.0607C49.5064 60.9822 52.5333 59.1079 55.587 56.2856C60.0026 52.2049 62.2414 48.2378 62.2414 44.4946C62.2414 35.9937 53.7879 32.0034 47.9769 36.7258C42.1529 31.9928 33.7124 36.0161 33.7124 44.4946C33.7124 48.2378 35.9512 52.2049 40.3666 56.2856Z" fill="#F5C1BC"/>
</g>
<defs>
<clipPath id="clip0">
<rect width="93.5752" height="93.5752" fill="white" transform="translate(0.712402 0.712402)"/>
</clipPath>
</defs>
</svg>
