<svg width="170" height="190" fill="none" xmlns="http://www.w3.org/2000/svg"><path fill-rule="evenodd" clip-rule="evenodd" d="M5 10A5 5 0 105 0a5 5 0 000 10zm0 20a5 5 0 100-10 5 5 0 000 10zm5 15a5 5 0 11-10 0 5 5 0 0110 0zM5 70a5 5 0 100-10 5 5 0 000 10zm5 15a5 5 0 11-10 0 5 5 0 0110 0zm-5 25a5 5 0 100-10 5 5 0 000 10zm5 15a5 5 0 11-10 0 5 5 0 0110 0zm-5 25a5 5 0 100-10 5 5 0 000 10zm5 15a5 5 0 11-10 0 5 5 0 0110 0zm-5 25a5 5 0 100-10 5 5 0 000 10zM30 5a5 5 0 11-10 0 5 5 0 0110 0zm-5 25a5 5 0 100-10 5 5 0 000 10zm5 15a5 5 0 11-10 0 5 5 0 0110 0zm-5 25a5 5 0 100-10 5 5 0 000 10zm5 15a5 5 0 11-10 0 5 5 0 0110 0zm-5 25a5 5 0 100-10 5 5 0 000 10zm5 15a5 5 0 11-10 0 5 5 0 0110 0zm-5 25a5 5 0 100-10 5 5 0 000 10zm5 15a5 5 0 11-10 0 5 5 0 0110 0zm-5 25a5 5 0 100-10 5 5 0 000 10zM50 5a5 5 0 11-10 0 5 5 0 0110 0zm-5 25a5 5 0 100-10 5 5 0 000 10zm5 15a5 5 0 11-10 0 5 5 0 0110 0zm-5 25a5 5 0 100-10 5 5 0 000 10zm5 15a5 5 0 11-10 0 5 5 0 0110 0zm-5 25a5 5 0 100-10 5 5 0 000 10zm5 15a5 5 0 11-10 0 5 5 0 0110 0zm-5 25a5 5 0 100-10 5 5 0 000 10zm5 15a5 5 0 11-10 0 5 5 0 0110 0zm-5 25a5 5 0 100-10 5 5 0 000 10zM70 5a5 5 0 11-10 0 5 5 0 0110 0zm-5 25a5 5 0 100-10 5 5 0 000 10zm5 15a5 5 0 11-10 0 5 5 0 0110 0zm-5 25a5 5 0 100-10 5 5 0 000 10zm5 15a5 5 0 11-10 0 5 5 0 0110 0zm-5 25a5 5 0 100-10 5 5 0 000 10zm5 15a5 5 0 11-10 0 5 5 0 0110 0zm-5 25a5 5 0 100-10 5 5 0 000 10zm5 15a5 5 0 11-10 0 5 5 0 0110 0zm-5 25a5 5 0 100-10 5 5 0 000 10zM90 5a5 5 0 11-10 0 5 5 0 0110 0zm-5 25a5 5 0 100-10 5 5 0 000 10zm5 15a5 5 0 11-10 0 5 5 0 0110 0zm-5 25a5 5 0 100-10 5 5 0 000 10zm5 15a5 5 0 11-10 0 5 5 0 0110 0zm-5 25a5 5 0 100-10 5 5 0 000 10zm5 15a5 5 0 11-10 0 5 5 0 0110 0zm-5 25a5 5 0 100-10 5 5 0 000 10zm5 15a5 5 0 11-10 0 5 5 0 0110 0zm-5 25a5 5 0 100-10 5 5 0 000 10zM110 5a5 5 0 11-10 0 5 5 0 0110 0zm-5 25a5 5 0 100-10 5 5 0 000 10zm5 15a5 5 0 11-10 0 5 5 0 0110 0zm-5 25a5 5 0 100-10 5 5 0 000 10zm5 15a5 5 0 11-10 0 5 5 0 0110 0zm-5 25a5 5 0 10-.001-10.001A5 5 0 00105 110zm5 15a5 5 0 11-10.001-.001A5 5 0 01110 125zm-5 25a5 5 0 10-.001-10.001A5 5 0 00105 150zm5 15a5 5 0 11-10.001-.001A5 5 0 01110 165zm-5 25a5 5 0 10-.001-10.001A5 5 0 00105 190zM130 5a5 5 0 11-10 0 5 5 0 0110 0zm-5 25a5 5 0 100-10 5 5 0 000 10zm5 15a5 5 0 11-10 0 5 5 0 0110 0zm-5 25a5 5 0 100-10 5 5 0 000 10zm5 15a5 5 0 11-10 0 5 5 0 0110 0zm-5 25a5 5 0 10-.001-10.001A5 5 0 00125 110zm5 15a5 5 0 11-10.001-.001A5 5 0 01130 125zm-5 25a5 5 0 10-.001-10.001A5 5 0 00125 150zm5 15a5 5 0 11-10.001-.001A5 5 0 01130 165zm-5 25a5 5 0 10-.001-10.001A5 5 0 00125 190zM150 5a5 5 0 11-10 0 5 5 0 0110 0zm-5 25a5 5 0 100-10 5 5 0 000 10zm5 15a5 5 0 11-10 0 5 5 0 0110 0zm-5 25a5 5 0 100-10 5 5 0 000 10zm5 15a5 5 0 11-10 0 5 5 0 0110 0zm-5 25a5 5 0 10-.001-10.001A5 5 0 00145 110zm5 15a5 5 0 11-10.001-.001A5 5 0 01150 125zm-5 25a5 5 0 10-.001-10.001A5 5 0 00145 150zm5 15a5 5 0 11-10.001-.001A5 5 0 01150 165zm-5 25a5 5 0 10-.001-10.001A5 5 0 00145 190zM170 5a5 5 0 11-10 0 5 5 0 0110 0zm-5 25a5 5 0 100-10 5 5 0 000 10zm5 15a5 5 0 11-10 0 5 5 0 0110 0zm-5 25a5 5 0 100-10 5 5 0 000 10zm5 15a5 5 0 11-10 0 5 5 0 0110 0zm-5 25a5 5 0 10-.001-10.001A5 5 0 00165 110zm5 15a5 5 0 11-10.001-.001A5 5 0 01170 125zm-5 25a5 5 0 10-.001-10.001A5 5 0 00165 150zm5 15a5 5 0 11-10.001-.001A5 5 0 01170 165zm-5 25a5 5 0 10-.001-10.001A5 5 0 00165 190z" fill="#F5C1BC"/></svg>