<svg width="81" height="93" fill="none" xmlns="http://www.w3.org/2000/svg"><path d="M74.144 33.195c-5.16-6.216-11.282-9.057-18.784-9.805-1.22-.12-1.05-.138-1.373-.138-3.946 0-7.434.398-10.925 1.245a22.43 22.43 0 00-1.555-5.255c8.397.68 15.771-5.336 16.894-13.594a2.88 2.88 0 00-1.497-2.93c-8.199-4.378-18.427-.763-22.002 7.884-2.43-2.042-5.376-3.833-8.914-5.42a2.88 2.88 0 10-2.357 5.257c7.793 3.495 12.17 7.983 13.541 13.957-10.123-2.165-19.633-1.18-27.293 5.601-4.76 4.178-7.65 9.626-8.61 15.578-.716 4.474-.213 12.053 1.716 18.491 1.897 6.675 5.184 12.849 9.778 18.362 1.33 1.578 2.984 3.542 4.98 5.14 9.152 7.251 17.582 4.044 22.612 2.72 1.475-.176 13.451 5.901 23.496-3.193 10.214-9.297 15.897-22.598 16.187-36.543.096-6.556-1.887-12.395-5.894-17.357z" fill="#F5C1BC"/></svg>