<svg width="93" height="83" fill="none" xmlns="http://www.w3.org/2000/svg"><path d="M46.474 7.888C26.574-9.517 1.274 5.775.859 26.507.753 31.79 2.278 36.936 5.314 41.68H24.99l3.5-5.834c1.016-1.693 3.476-1.748 4.55-.06l7.384 11.605 10.764-22.724c.938-1.983 3.736-2.046 4.771-.123l9.227 17.136h22.447C104.262 15.693 71.4-13.913 46.474 7.888z" fill="#F5C1BC"/><path d="M61.235 45.623l-7.477-13.886-10.573 22.32c-.9 1.9-3.545 2.065-4.673.292l-7.661-12.04-2.053 3.422a2.674 2.674 0 01-2.293 1.298H9.545c.531.557-2.303-2.271 35.042 34.88a2.674 2.674 0 003.773 0c36.77-36.58 34.512-34.324 35.043-34.88H63.59c-.984 0-1.888-.54-2.355-1.406z" fill="#F5C1BC"/></svg>