<svg width="95" height="73" fill="none" xmlns="http://www.w3.org/2000/svg"><path d="M93.292 43.722L84.728 6.949a8.187 8.187 0 00-4.545-5.477 8.162 8.162 0 00-7.116.115l-4.853 2.426a2.743 2.743 0 00-1.227 3.68 2.751 2.751 0 003.68 1.227l4.853-2.427a2.76 2.76 0 012.373-.04 2.718 2.718 0 011.505 1.784l7.267 31.207c-.203-.015-.398-.067-.603-.067H58.304a8.198 8.198 0 00-6.363 3.013c-.7.854-1.18 1.832-1.488 2.857a13.683 13.683 0 00-5.906 0c-.308-1.025-.787-2.004-1.487-2.857a8.199 8.199 0 00-6.364-3.013H8.938c-.205 0-.4.052-.603.067L15.59 8.282a2.739 2.739 0 013.889-1.789l4.853 2.427a2.742 2.742 0 102.453-4.907l-4.853-2.426a8.198 8.198 0 00-7.116-.116c-2.28 1.048-3.937 3.046-4.556 5.523L1.708 43.723A8.164 8.164 0 00.87 49.22l2.408 12.045c1.277 6.387 6.934 11.023 13.447 11.023h12.181c6.514 0 12.17-4.635 13.448-11.023l2.047-10.238a8.148 8.148 0 016.197 0l2.046 10.238c1.278 6.387 6.934 11.023 13.448 11.023h12.18c6.514 0 12.17-4.635 13.448-11.023l2.41-12.045a8.164 8.164 0 00-.837-5.498z" fill="#F5C1BC"/></svg>