<svg width="93" height="93" fill="none" xmlns="http://www.w3.org/2000/svg"><g clip-path="url(#clip0)" fill="#F5C1BC"><path d="M29.839 63.487l1.34-1.507a16.063 16.063 0 01.065-9.76 18.698 18.698 0 01-23.287-4.342C3.632 51.308.854 56.61.854 62.548v26.745a2.676 2.676 0 002.674 2.675h22.035a7.958 7.958 0 01-.46-2.675V75.92a18.68 18.68 0 014.736-12.433zM22.25 49.174c7.386 0 13.373-5.987 13.373-13.373 0-7.386-5.987-13.373-13.373-13.373-7.385 0-13.373 5.987-13.373 13.373 0 7.386 5.988 13.373 13.373 13.373zm62.793-1.296a18.693 18.693 0 01-23.287 4.34 16.066 16.066 0 01.064 9.762l1.34 1.507a18.68 18.68 0 014.737 12.433v13.373c0 .938-.163 1.838-.46 2.675h22.035a2.676 2.676 0 002.674-2.675V62.547c0-5.937-2.778-11.238-7.103-14.67zM70.75 49.174c7.385 0 13.372-5.987 13.372-13.373 0-7.386-5.987-13.373-13.373-13.373-7.385 0-13.372 5.987-13.372 13.373 0 7.386 5.987 13.373 13.372 13.373zM46.5 73.246c-5.143 0-9.727-2.43-12.665-6.203a13.312 13.312 0 00-3.383 8.877v13.373a2.676 2.676 0 002.675 2.675h26.746a2.676 2.676 0 002.674-2.675V75.92c0-3.404-1.278-6.513-3.382-8.877-2.939 3.772-7.523 6.203-12.665 6.203z"/><path d="M46.5 67.896c5.908 0 10.698-4.79 10.698-10.698 0-5.909-4.79-10.699-10.698-10.699-5.909 0-10.699 4.79-10.699 10.699 0 5.908 4.79 10.698 10.699 10.698zm-7.61-45.291c3.053 2.823 6.08 4.697 6.208 4.776.86.529 1.944.529 2.804 0 .127-.079 3.154-1.953 6.208-4.776 4.416-4.08 6.654-8.047 6.654-11.79 0-8.502-8.453-12.492-14.264-7.77-5.824-4.732-14.265-.709-14.265 7.77 0 3.743 2.24 7.71 6.655 11.79z"/></g><defs><clipPath id="clip0"><path fill="#fff" transform="translate(.854 .854)" d="M0 0h91.293v91.293H0z"/></clipPath></defs></svg>