<svg width="62" height="15" fill="none" xmlns="http://www.w3.org/2000/svg"><path d="M12.615 10.263c-2.002 1.441-4.357 2.078-6.458 3.391-.547-2.18-1.937-3.291-3.447-4.83-2.013-2.054-3.764-7.48.578-8.02 1.16-.144 2.268.532 3.115 1.34a8.838 8.838 0 011.894 2.682c.666-2.334 2.996-4.079 5.4-4.024.428.013.866.067 1.242.266.35.184.626.47.86.81.946 1.354.881 3.252.147 4.732-.748 1.492-1.945 2.673-3.33 3.653zm22.643 0c-2.003 1.441-4.357 2.078-6.46 3.391-.546-2.18-1.935-3.291-3.446-4.83-2.013-2.054-3.763-7.48.578-8.02 1.16-.144 2.269.532 3.115 1.34a8.838 8.838 0 011.894 2.682C31.606 2.492 33.935.747 36.34.802c.427.013.865.067 1.241.266.35.184.627.47.86.81.946 1.354.882 3.252.148 4.732-.749 1.492-1.946 2.673-3.331 3.653zm22.642 0c-2.003 1.441-4.357 2.078-6.459 3.391-.547-2.18-1.936-3.291-3.447-4.83-2.013-2.054-3.763-7.48.579-8.02 1.16-.144 2.268.532 3.114 1.34a8.838 8.838 0 011.894 2.682c.667-2.334 2.996-4.079 5.401-4.024.428.013.866.067 1.241.266.35.184.627.47.86.81.946 1.354.882 3.252.148 4.732-.749 1.492-1.946 2.673-3.331 3.653z" fill="#F5C1BC"/></svg>