<svg width="180" height="73" viewBox="0 0 180 73" fill="none" xmlns="http://www.w3.org/2000/svg">
<path d="M37.4919 72.9639C57.7325 72.9639 74.1408 56.6304 74.1408 36.482C74.1408 16.3335 57.7325 0 37.4919 0C17.2513 0 0.843028 16.3335 0.843028 36.482C0.843028 46.605 4.98494 55.765 11.6738 62.3744L0.489803 70.7521C-0.447663 71.4543 0.0504226 72.9396 1.22363 72.9404L37.4392 72.9639C37.4568 72.9639 37.4743 72.9639 37.4919 72.9639Z" fill="#264066"/>
<path d="M26.0244 19.2814C26.3488 19.1842 26.8677 19.0869 27.5813 18.9896C28.2949 18.8599 29.0247 18.795 29.7707 18.795C30.4843 18.795 31.1168 18.8437 31.6682 18.941C32.252 19.0382 32.7386 19.2328 33.1278 19.5246C33.517 19.8165 33.809 20.2218 34.0036 20.7406C34.1982 21.227 34.2955 21.8756 34.2955 22.6862V27.4529C35.1064 27.1286 35.8686 26.9016 36.5822 26.7719C37.3282 26.6422 38.1391 26.5774 39.0149 26.5774C40.5718 26.5774 42.0476 26.853 43.4423 27.4043C44.837 27.9555 46.0696 28.7662 47.14 29.8362C48.2103 30.8739 49.0537 32.1709 49.67 33.7274C50.2862 35.2839 50.5944 37.0835 50.5944 39.1264C50.5944 41.2341 50.27 43.0824 49.6213 44.6713C49.005 46.2278 48.1293 47.5249 46.994 48.5625C45.8588 49.6002 44.464 50.3946 42.8098 50.9458C41.188 51.4647 39.3879 51.7241 37.4093 51.7241C35.2686 51.7241 33.4522 51.4647 31.9601 50.9458C30.4681 50.4594 29.2031 49.8433 28.1652 49.0975C26.738 48.0923 26.0244 46.7953 26.0244 45.2064V19.2814Z" fill="white"/>
<path d="M41.6464 42.6831C39.9771 43.8851 38.0148 44.416 36.2629 45.5116C35.8069 43.6936 34.6488 42.7663 33.3901 41.4838C31.7121 39.7701 30.2531 35.2448 33.8721 34.7942C34.8386 34.6742 35.7627 35.2381 36.4681 35.9122C37.1311 36.5499 37.6636 37.3146 38.0467 38.1488C38.6024 36.2023 40.5439 34.7471 42.5485 34.7928C42.9047 34.8037 43.2699 34.8489 43.583 35.0147C43.8746 35.1678 44.1051 35.4073 44.2995 35.6895C45.0882 36.819 45.0345 38.4027 44.4227 39.6365C43.799 40.8809 42.8012 41.8657 41.6464 42.6831Z" fill="#264066"/>
<path d="M92.7051 24.3081C92.9521 24.234 93.3473 24.1599 93.8906 24.0858C94.434 23.987 94.9897 23.9376 95.5578 23.9376C96.1012 23.9376 96.5828 23.9747 97.0027 24.0488C97.4473 24.1229 97.8178 24.2711 98.1141 24.4933C98.4105 24.7156 98.6328 25.0244 98.781 25.4196C98.9292 25.79 99.0033 26.284 99.0033 26.9015V30.5322C99.6208 30.2853 100.201 30.1124 100.745 30.0136C101.313 29.9148 101.93 29.8654 102.597 29.8654C103.783 29.8654 104.906 30.0753 105.968 30.4952C107.03 30.9151 107.969 31.5325 108.784 32.3476C109.599 33.138 110.241 34.1259 110.711 35.3115C111.18 36.497 111.415 37.8678 111.415 39.4239C111.415 41.0293 111.168 42.4371 110.674 43.6474C110.204 44.8329 109.537 45.8209 108.673 46.6113C107.808 47.4016 106.746 48.0067 105.487 48.4266C104.252 48.8218 102.881 49.0194 101.374 49.0194C99.7443 49.0194 98.3611 48.8218 97.225 48.4266C96.0888 48.0561 95.1256 47.5869 94.3352 47.0188C93.2485 46.2531 92.7051 45.2652 92.7051 44.0549V24.3081ZM101.374 44.0549C102.511 44.0549 103.387 43.6721 104.005 42.9064C104.647 42.116 104.968 40.9552 104.968 39.4239C104.968 37.8678 104.647 36.707 104.005 35.9413C103.363 35.1756 102.498 34.7928 101.411 34.7928C100.917 34.7928 100.485 34.8422 100.115 34.941C99.769 35.0398 99.3861 35.188 98.9663 35.3856V43.4621C99.238 43.635 99.559 43.7832 99.9295 43.9067C100.325 44.0055 100.806 44.0549 101.374 44.0549Z" fill="#264066"/>
<path d="M120.893 48.3896C120.621 48.439 120.214 48.5007 119.671 48.5748C119.152 48.6736 118.621 48.723 118.077 48.723C117.534 48.723 117.04 48.686 116.596 48.6119C116.176 48.5378 115.818 48.3896 115.521 48.1673C115.225 47.945 114.99 47.6486 114.817 47.2781C114.669 46.8829 114.595 46.3766 114.595 45.7591V24.2711C114.867 24.2217 115.262 24.1599 115.78 24.0858C116.324 23.987 116.867 23.9376 117.411 23.9376C117.954 23.9376 118.436 23.9747 118.855 24.0488C119.3 24.1229 119.671 24.2711 119.967 24.4933C120.263 24.7156 120.486 25.0244 120.634 25.4196C120.807 25.79 120.893 26.284 120.893 26.9015V48.3896Z" fill="#264066"/>
<path d="M143.503 39.4239C143.503 40.9552 143.268 42.326 142.799 43.5362C142.33 44.7218 141.663 45.7221 140.798 46.5372C139.959 47.3522 138.946 47.9697 137.76 48.3896C136.575 48.8095 135.253 49.0194 133.796 49.0194C132.339 49.0194 131.017 48.7971 129.832 48.3525C128.646 47.908 127.621 47.2781 126.757 46.4631C125.917 45.6233 125.263 44.6106 124.793 43.4251C124.324 42.2395 124.089 40.9058 124.089 39.4239C124.089 37.9666 124.324 36.6452 124.793 35.4597C125.263 34.2741 125.917 33.2738 126.757 32.4588C127.621 31.619 128.646 30.9768 129.832 30.5322C131.017 30.0877 132.339 29.8654 133.796 29.8654C135.253 29.8654 136.575 30.1 137.76 30.5693C138.946 31.0139 139.959 31.656 140.798 32.4958C141.663 33.3109 142.33 34.3112 142.799 35.4967C143.268 36.6823 143.503 37.9913 143.503 39.4239ZM130.536 39.4239C130.536 40.9305 130.82 42.0913 131.388 42.9064C131.981 43.6968 132.796 44.092 133.833 44.092C134.871 44.092 135.661 43.6844 136.204 42.8694C136.772 42.0543 137.056 40.9058 137.056 39.4239C137.056 37.9419 136.772 36.8058 136.204 36.0154C135.636 35.2003 134.833 34.7928 133.796 34.7928C132.759 34.7928 131.956 35.2003 131.388 36.0154C130.82 36.8058 130.536 37.9419 130.536 39.4239Z" fill="#264066"/>
<path d="M161.765 43.0546C161.765 44.9317 161.061 46.4013 159.654 47.4634C158.246 48.5254 156.171 49.0565 153.429 49.0565C152.392 49.0565 151.429 48.9824 150.54 48.8342C149.651 48.686 148.885 48.4637 148.243 48.1673C147.625 47.8462 147.131 47.451 146.761 46.9817C146.415 46.5125 146.242 45.9567 146.242 45.3146C146.242 44.7218 146.366 44.2278 146.613 43.8326C146.86 43.4127 147.156 43.067 147.502 42.7953C148.218 43.1905 149.033 43.5486 149.947 43.8697C150.885 44.1661 151.96 44.3143 153.17 44.3143C153.936 44.3143 154.516 44.2031 154.911 43.9808C155.331 43.7585 155.541 43.4621 155.541 43.0917C155.541 42.7459 155.393 42.4742 155.097 42.2766C154.8 42.079 154.306 41.9185 153.615 41.795L152.503 41.5727C150.354 41.1528 148.749 40.4983 147.687 39.6091C146.65 38.6952 146.131 37.3985 146.131 35.719C146.131 34.8052 146.329 33.9777 146.724 33.2368C147.119 32.4958 147.675 31.8783 148.391 31.3844C149.107 30.8904 149.959 30.5075 150.947 30.2359C151.96 29.9642 153.071 29.8283 154.282 29.8283C155.195 29.8283 156.048 29.9024 156.838 30.0506C157.653 30.1741 158.357 30.3717 158.95 30.6434C159.542 30.9151 160.012 31.2732 160.358 31.7178C160.703 32.1377 160.876 32.644 160.876 33.2368C160.876 33.8049 160.765 34.2988 160.543 34.7187C160.345 35.1139 160.086 35.4473 159.765 35.719C159.567 35.5955 159.271 35.472 158.876 35.3485C158.48 35.2003 158.048 35.0768 157.579 34.9781C157.11 34.8546 156.628 34.7558 156.134 34.6817C155.665 34.6076 155.232 34.5705 154.837 34.5705C154.022 34.5705 153.392 34.6693 152.948 34.8669C152.503 35.0398 152.281 35.3238 152.281 35.719C152.281 35.9907 152.404 36.213 152.651 36.3859C152.898 36.5588 153.368 36.7193 154.059 36.8675L155.208 37.1269C157.579 37.6702 159.258 38.4236 160.246 39.3868C161.259 40.3254 161.765 41.548 161.765 43.0546Z" fill="#264066"/>
<path d="M180 43.0546C180 44.9317 179.296 46.4013 177.888 47.4634C176.481 48.5254 174.406 49.0565 171.664 49.0565C170.627 49.0565 169.664 48.9824 168.774 48.8342C167.885 48.686 167.12 48.4637 166.477 48.1673C165.86 47.8462 165.366 47.451 164.996 46.9817C164.65 46.5125 164.477 45.9567 164.477 45.3146C164.477 44.7218 164.6 44.2278 164.847 43.8326C165.094 43.4127 165.391 43.067 165.736 42.7953C166.453 43.1905 167.268 43.5486 168.182 43.8697C169.12 44.1661 170.195 44.3143 171.405 44.3143C172.171 44.3143 172.751 44.2031 173.146 43.9808C173.566 43.7585 173.776 43.4621 173.776 43.0917C173.776 42.7459 173.628 42.4742 173.331 42.2766C173.035 42.079 172.541 41.9185 171.849 41.795L170.738 41.5727C168.589 41.1528 166.984 40.4983 165.922 39.6091C164.884 38.6952 164.366 37.3985 164.366 35.719C164.366 34.8052 164.563 33.9777 164.958 33.2368C165.354 32.4958 165.909 31.8783 166.626 31.3844C167.342 30.8904 168.194 30.5075 169.182 30.2359C170.195 29.9642 171.306 29.8283 172.516 29.8283C173.43 29.8283 174.282 29.9024 175.073 30.0506C175.888 30.1741 176.592 30.3717 177.184 30.6434C177.777 30.9151 178.247 31.2732 178.592 31.7178C178.938 32.1377 179.111 32.644 179.111 33.2368C179.111 33.8049 179 34.2988 178.778 34.7187C178.58 35.1139 178.321 35.4473 178 35.719C177.802 35.5955 177.506 35.472 177.11 35.3485C176.715 35.2003 176.283 35.0768 175.814 34.9781C175.344 34.8546 174.863 34.7558 174.369 34.6817C173.899 34.6076 173.467 34.5705 173.072 34.5705C172.257 34.5705 171.627 34.6693 171.183 34.8669C170.738 35.0398 170.516 35.3238 170.516 35.719C170.516 35.9907 170.639 36.213 170.886 36.3859C171.133 36.5588 171.603 36.7193 172.294 36.8675L173.443 37.1269C175.814 37.6702 177.493 38.4236 178.481 39.3868C179.494 40.3254 180 41.548 180 43.0546Z" fill="#264066"/>
</svg>
