<svg width="783" height="317" viewBox="0 0 783 317" fill="none" xmlns="http://www.w3.org/2000/svg">
<path d="M162.888 317C250.825 317 322.113 246.037 322.113 158.5C322.113 70.9629 250.825 0 162.888 0C74.9502 0 3.66263 70.9629 3.66263 158.5C3.66263 202.481 21.6576 242.277 50.7182 270.992L2.12801 307.39C-1.94492 310.441 0.219067 316.895 5.31621 316.898L162.659 317C162.735 317 162.811 317 162.888 317Z" fill="#264066"/>
<path d="M113.066 83.7707C114.476 83.348 116.73 82.9254 119.831 82.5028C122.931 81.9392 126.102 81.6575 129.343 81.6575C132.443 81.6575 135.191 81.8688 137.586 82.2914C140.123 82.7141 142.237 83.5593 143.928 84.8273C145.619 86.0952 146.887 87.8562 147.733 90.1103C148.578 92.2235 149.001 95.0411 149.001 98.5631V119.273C152.524 117.864 155.836 116.878 158.936 116.314C162.177 115.75 165.7 115.469 169.505 115.469C176.269 115.469 182.681 116.666 188.74 119.061C194.8 121.456 200.155 124.978 204.805 129.627C209.456 134.135 213.12 139.771 215.797 146.533C218.475 153.295 219.813 161.114 219.813 169.989C219.813 179.147 218.404 187.177 215.586 194.08C212.908 200.842 209.103 206.477 204.171 210.986C199.239 215.494 193.179 218.945 185.993 221.34C178.947 223.594 171.125 224.721 162.529 224.721C153.229 224.721 145.337 223.594 138.855 221.34C132.372 219.227 126.877 216.55 122.367 213.31C116.167 208.943 113.066 203.308 113.066 196.404V83.7707Z" fill="#FFFFFF"/>
<path d="M180.938 185.442C173.685 190.664 165.16 192.971 157.549 197.73C155.568 189.832 150.536 185.803 145.068 180.231C137.777 172.785 131.439 153.125 147.161 151.167C151.361 150.646 155.376 153.096 158.44 156.024C161.321 158.795 163.634 162.117 165.299 165.742C167.713 157.285 176.148 150.963 184.857 151.161C186.405 151.209 187.991 151.405 189.352 152.125C190.619 152.791 191.62 153.831 192.465 155.057C195.891 159.964 195.658 166.845 193 172.205C190.29 177.612 185.955 181.89 180.938 185.442Z" fill="#264066"/>
<path d="M402.767 105.61C403.84 105.288 405.557 104.966 407.918 104.644C410.279 104.215 412.693 104 415.161 104C417.522 104 419.614 104.161 421.439 104.483C423.37 104.805 424.98 105.449 426.267 106.414C427.555 107.38 428.521 108.722 429.165 110.438C429.809 112.048 430.13 114.194 430.13 116.877V132.651C432.813 131.578 435.335 130.827 437.696 130.398C440.164 129.968 442.846 129.754 445.744 129.754C450.894 129.754 455.777 130.666 460.391 132.49C465.005 134.314 469.083 136.997 472.624 140.538C476.165 143.972 478.955 148.264 480.994 153.415C483.033 158.566 484.052 164.521 484.052 171.282C484.052 178.257 482.979 184.373 480.833 189.631C478.794 194.782 475.897 199.074 472.141 202.508C468.386 205.942 463.771 208.571 458.299 210.395C452.933 212.112 446.978 212.971 440.432 212.971C433.35 212.971 427.34 212.112 422.404 210.395C417.468 208.786 413.283 206.747 409.849 204.279C405.128 200.952 402.767 196.66 402.767 191.402V105.61ZM440.432 191.402C445.368 191.402 449.178 189.739 451.86 186.412C454.65 182.978 456.045 177.935 456.045 171.282C456.045 164.521 454.65 159.478 451.86 156.151C449.07 152.825 445.314 151.162 440.593 151.162C438.447 151.162 436.569 151.376 434.959 151.805C433.457 152.235 431.794 152.879 429.97 153.737V188.826C431.15 189.578 432.545 190.221 434.154 190.758C435.871 191.187 437.964 191.402 440.432 191.402Z" fill="#264066"/>
<path d="M525.233 210.234C524.053 210.449 522.282 210.717 519.922 211.039C517.668 211.468 515.361 211.683 513 211.683C510.64 211.683 508.493 211.522 506.562 211.2C504.738 210.878 503.182 210.234 501.894 209.269C500.606 208.303 499.587 207.015 498.836 205.405C498.192 203.689 497.87 201.489 497.87 198.806V105.449C499.05 105.234 500.767 104.966 503.021 104.644C505.381 104.215 507.742 104 510.103 104C512.464 104 514.556 104.161 516.38 104.483C518.312 104.805 519.922 105.449 521.209 106.414C522.497 107.38 523.463 108.722 524.107 110.438C524.858 112.048 525.233 114.194 525.233 116.877V210.234Z" fill="#264066"/>
<path d="M623.464 171.282C623.464 177.935 622.444 183.89 620.405 189.148C618.366 194.299 615.469 198.645 611.713 202.186C608.065 205.727 603.665 208.41 598.515 210.234C593.364 212.059 587.623 212.971 581.292 212.971C574.961 212.971 569.22 212.005 564.069 210.073C558.918 208.142 554.465 205.405 550.709 201.864C547.061 198.216 544.217 193.816 542.178 188.666C540.139 183.515 539.12 177.72 539.12 171.282C539.12 164.951 540.139 159.21 542.178 154.059C544.217 148.908 547.061 144.562 550.709 141.021C554.465 137.373 558.918 134.583 564.069 132.651C569.22 130.72 574.961 129.754 581.292 129.754C587.623 129.754 593.364 130.773 598.515 132.812C603.665 134.744 608.065 137.534 611.713 141.182C615.469 144.723 618.366 149.069 620.405 154.22C622.444 159.371 623.464 165.058 623.464 171.282ZM567.127 171.282C567.127 177.827 568.361 182.871 570.829 186.412C573.405 189.846 576.946 191.563 581.453 191.563C585.96 191.563 589.393 189.792 591.754 186.251C594.222 182.71 595.456 177.72 595.456 171.282C595.456 164.843 594.222 159.907 591.754 156.473C589.286 152.932 585.799 151.162 581.292 151.162C576.785 151.162 573.297 152.932 570.829 156.473C568.361 159.907 567.127 164.843 567.127 171.282Z" fill="#264066"/>
<path d="M702.807 187.056C702.807 195.211 699.749 201.596 693.633 206.21C687.516 210.825 678.502 213.132 666.591 213.132C662.084 213.132 657.899 212.81 654.036 212.166C650.173 211.522 646.847 210.556 644.057 209.269C641.374 207.874 639.228 206.157 637.618 204.118C636.116 202.079 635.365 199.665 635.365 196.875C635.365 194.299 635.901 192.153 636.974 190.436C638.047 188.612 639.335 187.11 640.837 185.929C643.949 187.646 647.49 189.202 651.461 190.597C655.538 191.885 660.206 192.529 665.464 192.529C668.791 192.529 671.313 192.046 673.03 191.08C674.854 190.114 675.766 188.826 675.766 187.217C675.766 185.715 675.122 184.534 673.834 183.676C672.547 182.817 670.4 182.12 667.396 181.583L662.567 180.617C653.231 178.793 646.256 175.95 641.642 172.087C637.135 168.116 634.882 162.483 634.882 155.186C634.882 151.215 635.74 147.62 637.457 144.401C639.174 141.182 641.588 138.499 644.7 136.353C647.812 134.207 651.514 132.544 655.807 131.363C660.206 130.183 665.035 129.593 670.293 129.593C674.264 129.593 677.966 129.915 681.4 130.559C684.941 131.095 687.999 131.954 690.574 133.134C693.15 134.314 695.189 135.87 696.691 137.802C698.193 139.626 698.944 141.826 698.944 144.401C698.944 146.869 698.461 149.015 697.496 150.84C696.637 152.557 695.51 154.005 694.115 155.186C693.257 154.649 691.969 154.113 690.252 153.576C688.535 152.932 686.658 152.396 684.619 151.966C682.58 151.43 680.487 151.001 678.341 150.679C676.302 150.357 674.424 150.196 672.708 150.196C669.166 150.196 666.43 150.625 664.499 151.484C662.567 152.235 661.601 153.469 661.601 155.186C661.601 156.366 662.138 157.332 663.211 158.083C664.284 158.834 666.323 159.532 669.327 160.175L674.317 161.302C684.619 163.663 691.916 166.936 696.208 171.121C700.608 175.198 702.807 180.51 702.807 187.056Z" fill="#264066"/>
<path d="M782.03 187.056C782.03 195.211 778.972 201.596 772.856 206.21C766.739 210.825 757.725 213.132 745.814 213.132C741.307 213.132 737.122 212.81 733.259 212.166C729.396 211.522 726.07 210.556 723.28 209.269C720.597 207.874 718.451 206.157 716.841 204.118C715.339 202.079 714.588 199.665 714.588 196.875C714.588 194.299 715.124 192.153 716.197 190.436C717.27 188.612 718.558 187.11 720.06 185.929C723.172 187.646 726.713 189.202 730.684 190.597C734.761 191.885 739.429 192.529 744.687 192.529C748.014 192.529 750.536 192.046 752.253 191.08C754.077 190.114 754.989 188.826 754.989 187.217C754.989 185.715 754.345 184.534 753.057 183.676C751.77 182.817 749.624 182.12 746.619 181.583L741.79 180.617C732.454 178.793 725.479 175.95 720.865 172.087C716.358 168.116 714.105 162.483 714.105 155.186C714.105 151.215 714.963 147.62 716.68 144.401C718.397 141.182 720.811 138.499 723.923 136.353C727.035 134.207 730.737 132.544 735.03 131.363C739.429 130.183 744.258 129.593 749.516 129.593C753.487 129.593 757.189 129.915 760.623 130.559C764.164 131.095 767.222 131.954 769.797 133.134C772.373 134.314 774.412 135.87 775.914 137.802C777.416 139.626 778.167 141.826 778.167 144.401C778.167 146.869 777.684 149.015 776.719 150.84C775.86 152.557 774.733 154.005 773.338 155.186C772.48 154.649 771.192 154.113 769.475 153.576C767.758 152.932 765.881 152.396 763.842 151.966C761.803 151.43 759.71 151.001 757.564 150.679C755.525 150.357 753.648 150.196 751.931 150.196C748.389 150.196 745.653 150.625 743.722 151.484C741.79 152.235 740.824 153.469 740.824 155.186C740.824 156.366 741.361 157.332 742.434 158.083C743.507 158.834 745.546 159.532 748.55 160.175L753.54 161.302C763.842 163.663 771.139 166.936 775.431 171.121C779.831 175.198 782.03 180.51 782.03 187.056Z" fill="#264066"/>
</svg>
