<svg width="184" height="181" viewBox="0 0 184 181" fill="none" xmlns="http://www.w3.org/2000/svg">
<path d="M93.0053 181C143.216 181 183.919 140.482 183.919 90.5C183.919 40.5182 143.216 0 93.0053 0C42.7949 0 2.09128 40.5182 2.09128 90.5C2.09128 115.612 12.366 138.335 28.9589 154.731L1.21504 175.513C-1.11051 177.255 0.125082 180.94 3.03544 180.942L92.8746 181C92.9182 181 92.9617 181 93.0053 181Z" fill="#264066"/>
<path d="M64.5583 47.8311C65.363 47.5898 66.6504 47.3485 68.4205 47.1071C70.1907 46.7854 72.0011 46.6245 73.8517 46.6245C75.6219 46.6245 77.1909 46.7452 78.5588 46.9865C80.0071 47.2278 81.214 47.7104 82.1796 48.4344C83.1451 49.1584 83.8693 50.1638 84.3521 51.4509C84.8348 52.6575 85.0762 54.2663 85.0762 56.2773V68.1019C87.0878 67.2975 88.9786 66.7344 90.7488 66.4126C92.5994 66.0909 94.611 65.93 96.7835 65.93C100.646 65.93 104.307 66.6137 107.767 67.9812C111.226 69.3487 114.284 71.3597 116.939 74.0142C119.595 76.5882 121.687 79.8058 123.215 83.6669C124.744 87.528 125.508 91.9924 125.508 97.0601C125.508 102.289 124.704 106.874 123.095 110.815C121.566 114.676 119.393 117.894 116.577 120.468C113.761 123.042 110.301 125.013 106.198 126.38C102.174 127.667 97.7088 128.311 92.8006 128.311C87.4901 128.311 82.9842 127.667 79.2829 126.38C75.5817 125.174 72.4436 123.645 69.8689 121.795C66.3285 119.302 64.5583 116.084 64.5583 112.143V47.8311Z" fill="#F5C1BC"/>
<path d="M103.312 105.883C99.1705 108.865 94.3028 110.182 89.9568 112.9C88.8257 108.39 85.9529 106.089 82.8305 102.908C78.6678 98.6567 75.0485 87.431 84.0259 86.3133C86.4236 86.0154 88.716 87.4143 90.4658 89.0865C92.1105 90.6685 93.4314 92.5654 94.382 94.6348C95.7605 89.8063 100.577 86.1964 105.549 86.3098C106.433 86.3368 107.339 86.4489 108.116 86.8601C108.839 87.2401 109.411 87.834 109.893 88.5341C111.849 91.336 111.716 95.2646 110.199 98.3254C108.652 101.412 106.176 103.855 103.312 105.883Z" fill="#264066"/>
</svg>
