<svg width="95" height="95" fill="none" xmlns="http://www.w3.org/2000/svg"><path d="M80.584 14.416C71.747 5.579 59.997.712 47.5.712c-12.498 0-24.247 4.867-33.084 13.704C5.579 23.253.712 35.002.712 47.5c0 12.498 4.867 24.247 13.704 33.084 8.837 8.837 20.586 13.704 33.084 13.704 12.497 0 24.247-4.867 33.084-13.704C89.42 71.747 94.288 59.997 94.288 47.5c0-12.498-4.867-24.247-13.704-33.084zM47.5 88.805c-22.776 0-41.305-18.53-41.305-41.305 0-12.14 5.265-23.072 13.63-30.636l1.258 3.595a15.86 15.86 0 009.344 9.604c5.312 2.024 8.026 7.994 6.063 13.324l-.4.982c-5-2.843-11.837-.306-15.3 5.691h-1.123a5.764 5.764 0 000 11.529h7.021a11.552 11.552 0 002.453 9.416 12.758 12.758 0 009.842 4.64 47.232 47.232 0 0021.403-5.127 23.811 23.811 0 0013.02-21.226c0-.606.214-1.195.609-1.656a13.434 13.434 0 003.233-9.287c-.264-7.074-6.067-12.793-13.145-12.96-7.593-.179-13.805 5.923-13.805 13.476 0 3.852 1.434 6.055 1.434 6.055-3.25 0-10.288 3.06-10.827 9.114l-.04.004c.087-1.754-.178-3.448-.773-4.96l1.493-3.663.03-.078c3.035-8.151-1.109-17.302-9.236-20.398a10.388 10.388 0 01-6.12-6.29l-1.877-5.363A41.068 41.068 0 0147.5 6.196c22.775 0 41.305 18.528 41.305 41.304 0 22.776-18.53 41.305-41.305 41.305z" fill="#F5C1BC"/></svg>