<svg width="95" height="95" fill="none" xmlns="http://www.w3.org/2000/svg"><g clip-path="url(#clip0)" fill="#F5C1BC"><path d="M93.57 22.385l-13.413 8.718a13.957 13.957 0 01-9.724 2.113c-10.122-1.546-19.285-5.298-27.1-10.658a5.397 5.397 0 01-2.257-5.56c.535-2.654 2.91-4.347 5.426-4.347h12.197c.827 0 1.553-.62 1.61-1.446a1.558 1.558 0 00-1.555-1.673H46.536c-3.7 0-7.06 2.308-8.24 5.817-.96 2.855-.368 5.92 1.503 8.17.582.7.438 1.749-.308 2.27l-19.75 13.812a5.5 5.5 0 01-7.38-.96 5.541 5.541 0 01.36-7.522l27.86-27.16A11.467 11.467 0 0150.537.883L79.78 6.015a3.862 3.862 0 003.14-.836l4.907-4.104c.904-.753 2.289-.273 2.527.881l3.891 18.805a1.56 1.56 0 01-.676 1.624zM82.278 63.881l-27.86 27.16a11.467 11.467 0 01-9.955 3.075l-29.245-5.131a3.862 3.862 0 00-3.14.836L7.17 93.925c-.898.75-2.287.278-2.527-.881L.754 74.239a1.558 1.558 0 01.676-1.624l13.412-8.718a13.96 13.96 0 019.724-2.113c10.042 1.533 19.296 5.276 27.102 10.658 1.956 1.336 2.933 3.865 2.033 6.343-.65 1.951-2.732 3.564-5.201 3.564H36.248a1.56 1.56 0 000 3.119h12.217c3.7 0 7.059-2.308 8.238-5.817.963-2.858.368-5.923-1.502-8.172a1.556 1.556 0 01.309-2.27L75.258 55.4a5.498 5.498 0 017.381.96 5.54 5.54 0 01-.36 7.522z"/><path d="M40.367 56.286c3.053 2.822 6.08 4.696 6.208 4.775.86.529 1.944.529 2.804 0 .127-.079 3.154-1.953 6.208-4.775 4.416-4.081 6.654-8.048 6.654-11.791 0-8.501-8.453-12.492-14.264-7.77-5.824-4.732-14.265-.709-14.265 7.77 0 3.743 2.24 7.71 6.655 11.79z"/></g><defs><clipPath id="clip0"><path fill="#fff" transform="translate(.712 .712)" d="M0 0h93.575v93.575H0z"/></clipPath></defs></svg>