<svg width="24" height="24" fill="none" xmlns="http://www.w3.org/2000/svg"><path d="M12.314.733l2.614 6.916c.185.491.633.843 1.164.878l7.086.467c.142.009.254.102.302.256a.394.394 0 01-.114.425l-5.47 4.741a1.408 1.408 0 00-.437 1.395l1.766 7.205a.39.39 0 01-.138.415.298.298 0 01-.365.012l-5.995-3.985a1.309 1.309 0 00-1.454 0l-5.995 3.986a.298.298 0 01-.365-.013.39.39 0 01-.138-.415l1.766-7.205a1.406 1.406 0 00-.437-1.395l-5.47-4.74A.394.394 0 01.52 9.25c.048-.154.16-.247.302-.256l7.086-.467a1.345 1.345 0 001.164-.878L11.686.733c.117-.31.51-.31.628 0z" stroke="#F5C1BC"/></svg>