<svg width="297" height="241" fill="none" xmlns="http://www.w3.org/2000/svg"><path d="M223.949 177.246c-37.299 26.856-81.143 38.72-120.288 63.198-10.188-40.62-36.064-61.34-64.188-89.996C1.98 112.157-30.62 11.045 50.241.978c21.596-2.683 42.244 9.917 58.005 24.979 14.814 14.249 26.712 31.335 35.273 49.974C155.935 32.44 199.317-.075 244.106.947c7.959.242 16.119 1.252 23.115 4.956 6.516 3.423 11.666 8.772 16.009 15.078 17.622 25.237 16.423 60.623 2.752 88.192-13.935 27.804-36.231 49.808-62.033 68.073z" fill="#F5C1BC"/></svg>