<svg width="115" height="115" fill="none" xmlns="http://www.w3.org/2000/svg"><path fill-rule="evenodd" clip-rule="evenodd" d="M15.899 11.775L11.775 15.9a1.944 1.944 0 000 2.749l7.789 7.788 6.872-6.872-7.788-7.789a1.945 1.945 0 00-2.75 0zm9.621 20.618l-3.665-3.666 6.872-6.872 3.666 3.665-6.873 6.873zm-2.185 2.396l-.106-.106L9.484 20.94a5.184 5.184 0 010-7.331l4.124-4.124a5.183 5.183 0 017.33 0L34.684 23.23l.106.106c2.009-1.378 4.504-1.84 6.81-.902 3.854 1.567 9.383 4.583 13.645 10.016 2.212 2.82 4.398 5.977 6.597 9.154 3.673 5.308 7.386 10.672 11.328 14.614 7.179 7.179 16.573 14.188 24.054 19.332 7.36 5.061 11.184 14.077 9.106 22.765a10.831 10.831 0 01-8.015 8.015c-8.688 2.078-17.704-1.746-22.765-9.106-5.144-7.48-12.153-16.875-19.332-24.054-3.942-3.942-9.306-7.654-14.614-11.328-3.177-2.2-6.334-4.385-9.154-6.597C27.016 50.982 24 45.454 22.433 41.6c-.937-2.306-.476-4.801.902-6.81zm26.411 6.365a16.252 16.252 0 00-1.32-1.429l-8.242 8.243a16.293 16.293 0 001.429 1.32l8.133-8.134zm-5.355 9.937c.98.483 1.946.808 2.849.978 2.16.407 3.603-.1 4.395-.892.793-.792 1.3-2.236.892-4.396a11.173 11.173 0 00-.978-2.848l-7.158 7.158zm-2.563-15.009c1.264.238 2.65.78 4.026 1.634l-7.68 7.68c-.854-1.376-1.395-2.763-1.633-4.026-.407-2.16.099-3.603.891-4.396.793-.792 2.237-1.298 4.396-.892zm12.098 17.386c3.543-3.542 2.21-10.62-2.978-15.807-5.187-5.187-12.264-6.52-15.806-2.978-3.543 3.543-2.21 10.62 2.978 15.807 5.187 5.187 12.264 6.52 15.806 2.978z" fill="#F5C1BC"/></svg>