<svg width="170" height="190" viewBox="0 0 170 190" fill="none" xmlns="http://www.w3.org/2000/svg">
<path fill-rule="evenodd" clip-rule="evenodd" d="M5 10C7.76147 10 10 7.76141 10 5C10 2.23859 7.76147 0 5 0C2.23853 0 0 2.23859 0 5C0 7.76141 2.23853 10 5 10ZM5 30C7.76147 30 10 27.7614 10 25C10 22.2386 7.76147 20 5 20C2.23853 20 0 22.2386 0 25C0 27.7614 2.23853 30 5 30ZM10 45C10 47.7614 7.76147 50 5 50C2.23853 50 0 47.7614 0 45C0 42.2386 2.23853 40 5 40C7.76147 40 10 42.2386 10 45ZM5 70C7.76147 70 10 67.7614 10 65C10 62.2386 7.76147 60 5 60C2.23853 60 0 62.2386 0 65C0 67.7614 2.23853 70 5 70ZM10 85C10 87.7614 7.76147 90 5 90C2.23853 90 0 87.7614 0 85C0 82.2386 2.23853 80 5 80C7.76147 80 10 82.2386 10 85ZM5 110C7.76147 110 10 107.761 10 105C10 102.239 7.76147 100 5 100C2.23853 100 0 102.239 0 105C0 107.761 2.23853 110 5 110ZM10 125C10 127.761 7.76147 130 5 130C2.23853 130 0 127.761 0 125C0 122.239 2.23853 120 5 120C7.76147 120 10 122.239 10 125ZM5 150C7.76147 150 10 147.761 10 145C10 142.239 7.76147 140 5 140C2.23853 140 0 142.239 0 145C0 147.761 2.23853 150 5 150ZM10 165C10 167.761 7.76147 170 5 170C2.23853 170 0 167.761 0 165C0 162.239 2.23853 160 5 160C7.76147 160 10 162.239 10 165ZM5 190C7.76147 190 10 187.761 10 185C10 182.239 7.76147 180 5 180C2.23853 180 0 182.239 0 185C0 187.761 2.23853 190 5 190ZM30 5C30 7.76141 27.7615 10 25 10C22.2385 10 20 7.76141 20 5C20 2.23859 22.2385 0 25 0C27.7615 0 30 2.23859 30 5ZM25 30C27.7615 30 30 27.7614 30 25C30 22.2386 27.7615 20 25 20C22.2385 20 20 22.2386 20 25C20 27.7614 22.2385 30 25 30ZM30 45C30 47.7614 27.7615 50 25 50C22.2385 50 20 47.7614 20 45C20 42.2386 22.2385 40 25 40C27.7615 40 30 42.2386 30 45ZM25 70C27.7615 70 30 67.7614 30 65C30 62.2386 27.7615 60 25 60C22.2385 60 20 62.2386 20 65C20 67.7614 22.2385 70 25 70ZM30 85C30 87.7614 27.7615 90 25 90C22.2385 90 20 87.7614 20 85C20 82.2386 22.2385 80 25 80C27.7615 80 30 82.2386 30 85ZM25 110C27.7615 110 30 107.761 30 105C30 102.239 27.7615 100 25 100C22.2385 100 20 102.239 20 105C20 107.761 22.2385 110 25 110ZM30 125C30 127.761 27.7615 130 25 130C22.2385 130 20 127.761 20 125C20 122.239 22.2385 120 25 120C27.7615 120 30 122.239 30 125ZM25 150C27.7615 150 30 147.761 30 145C30 142.239 27.7615 140 25 140C22.2385 140 20 142.239 20 145C20 147.761 22.2385 150 25 150ZM30 165C30 167.761 27.7615 170 25 170C22.2385 170 20 167.761 20 165C20 162.239 22.2385 160 25 160C27.7615 160 30 162.239 30 165ZM25 190C27.7615 190 30 187.761 30 185C30 182.239 27.7615 180 25 180C22.2385 180 20 182.239 20 185C20 187.761 22.2385 190 25 190ZM50 5C50 7.76141 47.7615 10 45 10C42.2385 10 40 7.76141 40 5C40 2.23859 42.2385 0 45 0C47.7615 0 50 2.23859 50 5ZM45 30C47.7615 30 50 27.7614 50 25C50 22.2386 47.7615 20 45 20C42.2385 20 40 22.2386 40 25C40 27.7614 42.2385 30 45 30ZM50 45C50 47.7614 47.7615 50 45 50C42.2385 50 40 47.7614 40 45C40 42.2386 42.2385 40 45 40C47.7615 40 50 42.2386 50 45ZM45 70C47.7615 70 50 67.7614 50 65C50 62.2386 47.7615 60 45 60C42.2385 60 40 62.2386 40 65C40 67.7614 42.2385 70 45 70ZM50 85C50 87.7614 47.7615 90 45 90C42.2385 90 40 87.7614 40 85C40 82.2386 42.2385 80 45 80C47.7615 80 50 82.2386 50 85ZM45 110C47.7615 110 50 107.761 50 105C50 102.239 47.7615 100 45 100C42.2385 100 40 102.239 40 105C40 107.761 42.2385 110 45 110ZM50 125C50 127.761 47.7615 130 45 130C42.2385 130 40 127.761 40 125C40 122.239 42.2385 120 45 120C47.7615 120 50 122.239 50 125ZM45 150C47.7615 150 50 147.761 50 145C50 142.239 47.7615 140 45 140C42.2385 140 40 142.239 40 145C40 147.761 42.2385 150 45 150ZM50 165C50 167.761 47.7615 170 45 170C42.2385 170 40 167.761 40 165C40 162.239 42.2385 160 45 160C47.7615 160 50 162.239 50 165ZM45 190C47.7615 190 50 187.761 50 185C50 182.239 47.7615 180 45 180C42.2385 180 40 182.239 40 185C40 187.761 42.2385 190 45 190ZM70 5C70 7.76141 67.7615 10 65 10C62.2385 10 60 7.76141 60 5C60 2.23859 62.2385 0 65 0C67.7615 0 70 2.23859 70 5ZM65 30C67.7615 30 70 27.7614 70 25C70 22.2386 67.7615 20 65 20C62.2385 20 60 22.2386 60 25C60 27.7614 62.2385 30 65 30ZM70 45C70 47.7614 67.7615 50 65 50C62.2385 50 60 47.7614 60 45C60 42.2386 62.2385 40 65 40C67.7615 40 70 42.2386 70 45ZM65 70C67.7615 70 70 67.7614 70 65C70 62.2386 67.7615 60 65 60C62.2385 60 60 62.2386 60 65C60 67.7614 62.2385 70 65 70ZM70 85C70 87.7614 67.7615 90 65 90C62.2385 90 60 87.7614 60 85C60 82.2386 62.2385 80 65 80C67.7615 80 70 82.2386 70 85ZM65 110C67.7615 110 70 107.761 70 105C70 102.239 67.7615 100 65 100C62.2385 100 60 102.239 60 105C60 107.761 62.2385 110 65 110ZM70 125C70 127.761 67.7615 130 65 130C62.2385 130 60 127.761 60 125C60 122.239 62.2385 120 65 120C67.7615 120 70 122.239 70 125ZM65 150C67.7615 150 70 147.761 70 145C70 142.239 67.7615 140 65 140C62.2385 140 60 142.239 60 145C60 147.761 62.2385 150 65 150ZM70 165C70 167.761 67.7615 170 65 170C62.2385 170 60 167.761 60 165C60 162.239 62.2385 160 65 160C67.7615 160 70 162.239 70 165ZM65 190C67.7615 190 70 187.761 70 185C70 182.239 67.7615 180 65 180C62.2385 180 60 182.239 60 185C60 187.761 62.2385 190 65 190ZM90 5C90 7.76141 87.7615 10 85 10C82.2385 10 80 7.76141 80 5C80 2.23859 82.2385 0 85 0C87.7615 0 90 2.23859 90 5ZM85 30C87.7615 30 90 27.7614 90 25C90 22.2386 87.7615 20 85 20C82.2385 20 80 22.2386 80 25C80 27.7614 82.2385 30 85 30ZM90 45C90 47.7614 87.7615 50 85 50C82.2385 50 80 47.7614 80 45C80 42.2386 82.2385 40 85 40C87.7615 40 90 42.2386 90 45ZM85 70C87.7615 70 90 67.7614 90 65C90 62.2386 87.7615 60 85 60C82.2385 60 80 62.2386 80 65C80 67.7614 82.2385 70 85 70ZM90 85C90 87.7614 87.7615 90 85 90C82.2385 90 80 87.7614 80 85C80 82.2386 82.2385 80 85 80C87.7615 80 90 82.2386 90 85ZM85 110C87.7615 110 90 107.761 90 105C90 102.239 87.7615 100 85 100C82.2385 100 80 102.239 80 105C80 107.761 82.2385 110 85 110ZM90 125C90 127.761 87.7615 130 85 130C82.2385 130 80 127.761 80 125C80 122.239 82.2385 120 85 120C87.7615 120 90 122.239 90 125ZM85 150C87.7615 150 90 147.761 90 145C90 142.239 87.7615 140 85 140C82.2385 140 80 142.239 80 145C80 147.761 82.2385 150 85 150ZM90 165C90 167.761 87.7615 170 85 170C82.2385 170 80 167.761 80 165C80 162.239 82.2385 160 85 160C87.7615 160 90 162.239 90 165ZM85 190C87.7615 190 90 187.761 90 185C90 182.239 87.7615 180 85 180C82.2385 180 80 182.239 80 185C80 187.761 82.2385 190 85 190ZM110 5C110 7.76141 107.761 10 105 10C102.239 10 100 7.76141 100 5C100 2.23859 102.239 0 105 0C107.761 0 110 2.23859 110 5ZM105 30C107.761 30 110 27.7614 110 25C110 22.2386 107.761 20 105 20C102.239 20 100 22.2386 100 25C100 27.7614 102.239 30 105 30ZM110 45C110 47.7614 107.761 50 105 50C102.239 50 100 47.7614 100 45C100 42.2386 102.239 40 105 40C107.761 40 110 42.2386 110 45ZM105 70C107.761 70 110 67.7614 110 65C110 62.2386 107.761 60 105 60C102.239 60 100 62.2386 100 65C100 67.7614 102.239 70 105 70ZM110 85C110 87.7614 107.761 90 105 90C102.239 90 100 87.7614 100 85C100 82.2386 102.239 80 105 80C107.761 80 110 82.2386 110 85ZM105 110C107.761 110 110 107.761 110 105C110 102.239 107.761 100 105 100C102.239 100 100 102.239 100 105C100 107.761 102.239 110 105 110ZM110 125C110 127.761 107.761 130 105 130C102.239 130 100 127.761 100 125C100 122.239 102.239 120 105 120C107.761 120 110 122.239 110 125ZM105 150C107.761 150 110 147.761 110 145C110 142.239 107.761 140 105 140C102.239 140 100 142.239 100 145C100 147.761 102.239 150 105 150ZM110 165C110 167.761 107.761 170 105 170C102.239 170 100 167.761 100 165C100 162.239 102.239 160 105 160C107.761 160 110 162.239 110 165ZM105 190C107.761 190 110 187.761 110 185C110 182.239 107.761 180 105 180C102.239 180 100 182.239 100 185C100 187.761 102.239 190 105 190ZM130 5C130 7.76141 127.761 10 125 10C122.239 10 120 7.76141 120 5C120 2.23859 122.239 0 125 0C127.761 0 130 2.23859 130 5ZM125 30C127.761 30 130 27.7614 130 25C130 22.2386 127.761 20 125 20C122.239 20 120 22.2386 120 25C120 27.7614 122.239 30 125 30ZM130 45C130 47.7614 127.761 50 125 50C122.239 50 120 47.7614 120 45C120 42.2386 122.239 40 125 40C127.761 40 130 42.2386 130 45ZM125 70C127.761 70 130 67.7614 130 65C130 62.2386 127.761 60 125 60C122.239 60 120 62.2386 120 65C120 67.7614 122.239 70 125 70ZM130 85C130 87.7614 127.761 90 125 90C122.239 90 120 87.7614 120 85C120 82.2386 122.239 80 125 80C127.761 80 130 82.2386 130 85ZM125 110C127.761 110 130 107.761 130 105C130 102.239 127.761 100 125 100C122.239 100 120 102.239 120 105C120 107.761 122.239 110 125 110ZM130 125C130 127.761 127.761 130 125 130C122.239 130 120 127.761 120 125C120 122.239 122.239 120 125 120C127.761 120 130 122.239 130 125ZM125 150C127.761 150 130 147.761 130 145C130 142.239 127.761 140 125 140C122.239 140 120 142.239 120 145C120 147.761 122.239 150 125 150ZM130 165C130 167.761 127.761 170 125 170C122.239 170 120 167.761 120 165C120 162.239 122.239 160 125 160C127.761 160 130 162.239 130 165ZM125 190C127.761 190 130 187.761 130 185C130 182.239 127.761 180 125 180C122.239 180 120 182.239 120 185C120 187.761 122.239 190 125 190ZM150 5C150 7.76141 147.761 10 145 10C142.239 10 140 7.76141 140 5C140 2.23859 142.239 0 145 0C147.761 0 150 2.23859 150 5ZM145 30C147.761 30 150 27.7614 150 25C150 22.2386 147.761 20 145 20C142.239 20 140 22.2386 140 25C140 27.7614 142.239 30 145 30ZM150 45C150 47.7614 147.761 50 145 50C142.239 50 140 47.7614 140 45C140 42.2386 142.239 40 145 40C147.761 40 150 42.2386 150 45ZM145 70C147.761 70 150 67.7614 150 65C150 62.2386 147.761 60 145 60C142.239 60 140 62.2386 140 65C140 67.7614 142.239 70 145 70ZM150 85C150 87.7614 147.761 90 145 90C142.239 90 140 87.7614 140 85C140 82.2386 142.239 80 145 80C147.761 80 150 82.2386 150 85ZM145 110C147.761 110 150 107.761 150 105C150 102.239 147.761 100 145 100C142.239 100 140 102.239 140 105C140 107.761 142.239 110 145 110ZM150 125C150 127.761 147.761 130 145 130C142.239 130 140 127.761 140 125C140 122.239 142.239 120 145 120C147.761 120 150 122.239 150 125ZM145 150C147.761 150 150 147.761 150 145C150 142.239 147.761 140 145 140C142.239 140 140 142.239 140 145C140 147.761 142.239 150 145 150ZM150 165C150 167.761 147.761 170 145 170C142.239 170 140 167.761 140 165C140 162.239 142.239 160 145 160C147.761 160 150 162.239 150 165ZM145 190C147.761 190 150 187.761 150 185C150 182.239 147.761 180 145 180C142.239 180 140 182.239 140 185C140 187.761 142.239 190 145 190ZM170 5C170 7.76141 167.761 10 165 10C162.239 10 160 7.76141 160 5C160 2.23859 162.239 0 165 0C167.761 0 170 2.23859 170 5ZM165 30C167.761 30 170 27.7614 170 25C170 22.2386 167.761 20 165 20C162.239 20 160 22.2386 160 25C160 27.7614 162.239 30 165 30ZM170 45C170 47.7614 167.761 50 165 50C162.239 50 160 47.7614 160 45C160 42.2386 162.239 40 165 40C167.761 40 170 42.2386 170 45ZM165 70C167.761 70 170 67.7614 170 65C170 62.2386 167.761 60 165 60C162.239 60 160 62.2386 160 65C160 67.7614 162.239 70 165 70ZM170 85C170 87.7614 167.761 90 165 90C162.239 90 160 87.7614 160 85C160 82.2386 162.239 80 165 80C167.761 80 170 82.2386 170 85ZM165 110C167.761 110 170 107.761 170 105C170 102.239 167.761 100 165 100C162.239 100 160 102.239 160 105C160 107.761 162.239 110 165 110ZM170 125C170 127.761 167.761 130 165 130C162.239 130 160 127.761 160 125C160 122.239 162.239 120 165 120C167.761 120 170 122.239 170 125ZM165 150C167.761 150 170 147.761 170 145C170 142.239 167.761 140 165 140C162.239 140 160 142.239 160 145C160 147.761 162.239 150 165 150ZM170 165C170 167.761 167.761 170 165 170C162.239 170 160 167.761 160 165C160 162.239 162.239 160 165 160C167.761 160 170 162.239 170 165ZM165 190C167.761 190 170 187.761 170 185C170 182.239 167.761 180 165 180C162.239 180 160 182.239 160 185C160 187.761 162.239 190 165 190Z" fill="#F5C1BC"/>
</svg>
