<svg width="93" height="83" viewBox="0 0 93 83" fill="none" xmlns="http://www.w3.org/2000/svg">
<path d="M46.474 7.88788C26.5749 -9.5167 1.27355 5.77547 0.85866 26.5065C0.752933 31.7898 2.27805 36.9362 5.31384 41.6808H24.9909L28.4908 35.8474C29.5071 34.1538 31.9665 34.0992 33.0403 35.7877L40.4247 47.3915L51.1887 24.6679C52.1274 22.6851 54.925 22.6222 55.9604 24.5449L65.1874 41.6808H87.6341C104.262 15.6928 71.3997 -13.9129 46.474 7.88788Z" fill="#F5C1BC"/>
<path d="M61.2352 45.6229L53.7584 31.7373L43.1854 54.0578C42.2859 55.9568 39.6402 56.1217 38.5122 54.3487L30.851 42.3099L28.7983 45.731C28.3149 46.5365 27.4445 47.0293 26.5051 47.0293H9.54443C10.0761 47.5857 7.2425 44.7578 44.5875 81.9094C45.6305 82.9473 47.3166 82.9474 48.3598 81.9094C85.1302 45.3294 82.8723 47.5847 83.4029 47.0293H63.59C62.606 47.0295 61.7017 46.4892 61.2352 45.6229Z" fill="#F5C1BC"/>
</svg>
