<svg width="81" height="93" viewBox="0 0 81 93" fill="none" xmlns="http://www.w3.org/2000/svg">
<path d="M74.1443 33.195C68.9837 26.9788 62.8621 24.1383 55.3601 23.3904C54.1407 23.2691 54.3101 23.2523 53.9866 23.2523C50.041 23.2523 46.5526 23.6495 43.0618 24.4968C42.7514 22.6548 42.2304 20.9017 41.5068 19.242C49.9038 19.9221 57.2782 13.9056 58.4013 5.64791C58.5637 4.45443 57.9665 3.28598 56.9041 2.71868C48.7053 -1.66006 38.4774 1.95495 34.9024 10.6021C32.4728 8.56041 29.5261 6.76902 25.9883 5.18233C24.5367 4.53131 22.8322 5.18017 22.1812 6.63183C21.5302 8.08348 22.179 9.78809 23.6307 10.4391C31.4241 13.9344 35.801 18.4217 37.1722 24.3965C27.0493 22.2313 17.5393 23.2167 9.8793 29.9975C5.11871 34.1753 2.22908 39.6226 1.26893 45.5754C0.552552 50.049 1.05648 57.6276 2.9847 64.0663C4.88232 70.7409 8.16911 76.9148 12.7632 82.4276C14.0924 84.006 15.7466 85.9701 17.7427 87.5672C26.8946 94.8193 35.3246 91.6125 40.3553 90.2887C41.83 90.1115 53.8062 96.1894 63.8507 87.0951C74.0647 77.7977 79.7478 64.4968 80.0384 50.552C80.1344 43.9963 78.1514 38.1565 74.1443 33.195Z" fill="#F5C1BC"/>
</svg>
