<svg width="95" height="95" viewBox="0 0 95 95" fill="none" xmlns="http://www.w3.org/2000/svg">
<path d="M80.5839 14.4159C71.7466 5.57901 59.9972 0.712158 47.4998 0.712158C35.0023 0.712158 23.2529 5.57901 14.4156 14.4159C5.57876 23.2531 0.711914 35.0025 0.711914 47.5C0.711914 59.9975 5.57876 71.7469 14.4156 80.5841C23.2529 89.421 35.0023 94.2878 47.4998 94.2878C59.9972 94.2878 71.7466 89.421 80.5839 80.5841C89.4208 71.7469 94.2876 59.9975 94.2876 47.5C94.2876 35.0025 89.4208 23.2531 80.5839 14.4159ZM47.4998 88.8049C24.7241 88.8049 6.19486 70.2756 6.19486 47.5C6.19486 35.3604 11.46 24.4279 19.8255 16.8638L21.0833 20.459C22.6337 24.8909 26.0393 28.3912 30.4271 30.0629C35.7388 32.0865 38.4529 38.0571 36.4905 43.3869L36.0905 44.3687C31.0906 41.5258 24.2526 44.0633 20.7901 50.0605H19.667C16.4836 50.0605 13.9032 52.6412 13.9032 55.8246C13.9032 59.008 16.4838 61.5886 19.667 61.5886H26.6885C26.0932 64.8689 26.9321 68.3266 29.1405 71.0049V71.0051C31.5639 73.9435 35.1737 75.6458 38.9829 75.6458C46.4214 75.6458 53.7549 73.8889 60.3858 70.5182C68.3746 66.4571 73.4067 58.2543 73.4067 49.2924C73.4067 48.6856 73.6196 48.0967 74.0146 47.636C76.1398 45.1581 77.3807 41.8994 77.2484 38.3495C76.9845 31.2745 71.1812 25.5558 64.1034 25.3891C56.5101 25.2103 50.2984 31.3123 50.2984 38.8651C50.2984 42.7165 51.7324 44.9199 51.7324 44.9199C48.4827 44.9199 41.4438 47.9798 40.9054 54.0344L40.8647 54.0375C40.952 52.2844 40.6868 50.5896 40.0917 49.0787L41.5846 45.4147L41.6149 45.3368C44.6497 37.1858 40.5064 28.0355 32.3787 24.9393C29.5045 23.8444 27.2739 21.5516 26.2584 18.6487L24.3825 13.2864C30.9838 8.81157 38.942 6.19511 47.4998 6.19511C70.2754 6.19511 88.8047 24.7244 88.8047 47.5C88.8047 70.2756 70.2754 88.8049 47.4998 88.8049Z" fill="#F5C1BC"/>
</svg>
