<svg width="297" height="241" viewBox="0 0 297 241" fill="none" xmlns="http://www.w3.org/2000/svg">
<path d="M223.949 177.246C186.65 204.102 142.806 215.966 103.661 240.444C93.4728 199.824 67.5974 179.104 39.4734 150.448C1.97992 112.157 -30.6198 11.0452 50.241 0.977826C71.837 -1.70474 92.485 10.8947 108.246 25.9569C123.06 40.2059 134.958 57.2916 143.519 75.9306C155.935 32.4396 199.317 -0.074611 244.106 0.946686C252.065 1.18949 260.225 2.19928 267.221 5.90317C273.737 9.3257 278.887 14.6753 283.23 20.9808C300.852 46.2182 299.653 81.6038 285.982 109.173C272.047 136.977 249.751 158.981 223.949 177.246Z" fill="#F5C1BC"/>
</svg>
