<?xml version="1.0" encoding="utf-8"?><svg xmlns="http://www.w3.org/2000/svg" xmlns:xlink="http://www.w3.org/1999/xlink"><symbol viewBox="0 0 170 190" id="deco-dots" xmlns="http://www.w3.org/2000/svg"><path fill-rule="evenodd" clip-rule="evenodd" d="M5 10A5 5 0 105 0a5 5 0 000 10zm0 20a5 5 0 100-10 5 5 0 000 10zm5 15a5 5 0 11-10 0 5 5 0 0110 0zM5 70a5 5 0 100-10 5 5 0 000 10zm5 15a5 5 0 11-10 0 5 5 0 0110 0zm-5 25a5 5 0 100-10 5 5 0 000 10zm5 15a5 5 0 11-10 0 5 5 0 0110 0zm-5 25a5 5 0 100-10 5 5 0 000 10zm5 15a5 5 0 11-10 0 5 5 0 0110 0zm-5 25a5 5 0 100-10 5 5 0 000 10zM30 5a5 5 0 11-10 0 5 5 0 0110 0zm-5 25a5 5 0 100-10 5 5 0 000 10zm5 15a5 5 0 11-10 0 5 5 0 0110 0zm-5 25a5 5 0 100-10 5 5 0 000 10zm5 15a5 5 0 11-10 0 5 5 0 0110 0zm-5 25a5 5 0 100-10 5 5 0 000 10zm5 15a5 5 0 11-10 0 5 5 0 0110 0zm-5 25a5 5 0 100-10 5 5 0 000 10zm5 15a5 5 0 11-10 0 5 5 0 0110 0zm-5 25a5 5 0 100-10 5 5 0 000 10zM50 5a5 5 0 11-10 0 5 5 0 0110 0zm-5 25a5 5 0 100-10 5 5 0 000 10zm5 15a5 5 0 11-10 0 5 5 0 0110 0zm-5 25a5 5 0 100-10 5 5 0 000 10zm5 15a5 5 0 11-10 0 5 5 0 0110 0zm-5 25a5 5 0 100-10 5 5 0 000 10zm5 15a5 5 0 11-10 0 5 5 0 0110 0zm-5 25a5 5 0 100-10 5 5 0 000 10zm5 15a5 5 0 11-10 0 5 5 0 0110 0zm-5 25a5 5 0 100-10 5 5 0 000 10zM70 5a5 5 0 11-10 0 5 5 0 0110 0zm-5 25a5 5 0 100-10 5 5 0 000 10zm5 15a5 5 0 11-10 0 5 5 0 0110 0zm-5 25a5 5 0 100-10 5 5 0 000 10zm5 15a5 5 0 11-10 0 5 5 0 0110 0zm-5 25a5 5 0 100-10 5 5 0 000 10zm5 15a5 5 0 11-10 0 5 5 0 0110 0zm-5 25a5 5 0 100-10 5 5 0 000 10zm5 15a5 5 0 11-10 0 5 5 0 0110 0zm-5 25a5 5 0 100-10 5 5 0 000 10zM90 5a5 5 0 11-10 0 5 5 0 0110 0zm-5 25a5 5 0 100-10 5 5 0 000 10zm5 15a5 5 0 11-10 0 5 5 0 0110 0zm-5 25a5 5 0 100-10 5 5 0 000 10zm5 15a5 5 0 11-10 0 5 5 0 0110 0zm-5 25a5 5 0 100-10 5 5 0 000 10zm5 15a5 5 0 11-10 0 5 5 0 0110 0zm-5 25a5 5 0 100-10 5 5 0 000 10zm5 15a5 5 0 11-10 0 5 5 0 0110 0zm-5 25a5 5 0 100-10 5 5 0 000 10zM110 5a5 5 0 11-10 0 5 5 0 0110 0zm-5 25a5 5 0 100-10 5 5 0 000 10zm5 15a5 5 0 11-10 0 5 5 0 0110 0zm-5 25a5 5 0 100-10 5 5 0 000 10zm5 15a5 5 0 11-10 0 5 5 0 0110 0zm-5 25a5 5 0 10-.001-10.001A5 5 0 00105 110zm5 15a5 5 0 11-10.001-.001A5 5 0 01110 125zm-5 25a5 5 0 10-.001-10.001A5 5 0 00105 150zm5 15a5 5 0 11-10.001-.001A5 5 0 01110 165zm-5 25a5 5 0 10-.001-10.001A5 5 0 00105 190zM130 5a5 5 0 11-10 0 5 5 0 0110 0zm-5 25a5 5 0 100-10 5 5 0 000 10zm5 15a5 5 0 11-10 0 5 5 0 0110 0zm-5 25a5 5 0 100-10 5 5 0 000 10zm5 15a5 5 0 11-10 0 5 5 0 0110 0zm-5 25a5 5 0 10-.001-10.001A5 5 0 00125 110zm5 15a5 5 0 11-10.001-.001A5 5 0 01130 125zm-5 25a5 5 0 10-.001-10.001A5 5 0 00125 150zm5 15a5 5 0 11-10.001-.001A5 5 0 01130 165zm-5 25a5 5 0 10-.001-10.001A5 5 0 00125 190zM150 5a5 5 0 11-10 0 5 5 0 0110 0zm-5 25a5 5 0 100-10 5 5 0 000 10zm5 15a5 5 0 11-10 0 5 5 0 0110 0zm-5 25a5 5 0 100-10 5 5 0 000 10zm5 15a5 5 0 11-10 0 5 5 0 0110 0zm-5 25a5 5 0 10-.001-10.001A5 5 0 00145 110zm5 15a5 5 0 11-10.001-.001A5 5 0 01150 125zm-5 25a5 5 0 10-.001-10.001A5 5 0 00145 150zm5 15a5 5 0 11-10.001-.001A5 5 0 01150 165zm-5 25a5 5 0 10-.001-10.001A5 5 0 00145 190zM170 5a5 5 0 11-10 0 5 5 0 0110 0zm-5 25a5 5 0 100-10 5 5 0 000 10zm5 15a5 5 0 11-10 0 5 5 0 0110 0zm-5 25a5 5 0 100-10 5 5 0 000 10zm5 15a5 5 0 11-10 0 5 5 0 0110 0zm-5 25a5 5 0 10-.001-10.001A5 5 0 00165 110zm5 15a5 5 0 11-10.001-.001A5 5 0 01170 125zm-5 25a5 5 0 10-.001-10.001A5 5 0 00165 150zm5 15a5 5 0 11-10.001-.001A5 5 0 01170 165zm-5 25a5 5 0 10-.001-10.001A5 5 0 00165 190z"/></symbol><symbol viewBox="0 0 81 93" id="icon-apple" xmlns="http://www.w3.org/2000/svg"><path d="M74.144 33.195c-5.16-6.216-11.282-9.057-18.784-9.805-1.22-.12-1.05-.138-1.373-.138-3.946 0-7.434.398-10.925 1.245a22.43 22.43 0 00-1.555-5.255c8.397.68 15.771-5.336 16.894-13.594a2.88 2.88 0 00-1.497-2.93c-8.199-4.378-18.427-.763-22.002 7.884-2.43-2.042-5.376-3.833-8.914-5.42a2.88 2.88 0 10-2.357 5.257c7.793 3.495 12.17 7.983 13.541 13.957-10.123-2.165-19.633-1.18-27.293 5.601-4.76 4.178-7.65 9.626-8.61 15.578-.716 4.474-.213 12.053 1.716 18.491 1.897 6.675 5.184 12.849 9.778 18.362 1.33 1.578 2.984 3.542 4.98 5.14 9.152 7.251 17.582 4.044 22.612 2.72 1.475-.176 13.451 5.901 23.496-3.193 10.214-9.297 15.897-22.598 16.187-36.543.096-6.556-1.887-12.395-5.894-17.357z"/></symbol><symbol viewBox="0 0 13 22" id="icon-arrow-angel" xmlns="http://www.w3.org/2000/svg"><path d="M2 2l9 9-9 9"/></symbol><symbol viewBox="0 0 115 115" id="icon-conceive" xmlns="http://www.w3.org/2000/svg"><path fill-rule="evenodd" clip-rule="evenodd" d="M15.899 11.775L11.775 15.9a1.944 1.944 0 000 2.749l7.789 7.788 6.872-6.872-7.788-7.789a1.945 1.945 0 00-2.75 0zm9.621 20.618l-3.665-3.666 6.872-6.872 3.666 3.665-6.873 6.873zm-2.185 2.396l-.106-.106L9.484 20.94a5.184 5.184 0 010-7.331l4.124-4.124a5.183 5.183 0 017.33 0L34.684 23.23l.106.106c2.009-1.378 4.504-1.84 6.81-.902 3.854 1.567 9.383 4.583 13.645 10.016 2.212 2.82 4.398 5.977 6.597 9.154 3.673 5.308 7.386 10.672 11.328 14.614 7.179 7.179 16.573 14.188 24.054 19.332 7.36 5.061 11.184 14.077 9.106 22.765a10.831 10.831 0 01-8.015 8.015c-8.688 2.078-17.704-1.746-22.765-9.106-5.144-7.48-12.153-16.875-19.332-24.054-3.942-3.942-9.306-7.654-14.614-11.328-3.177-2.2-6.334-4.385-9.154-6.597C27.016 50.982 24 45.454 22.433 41.6c-.937-2.306-.476-4.801.902-6.81zm26.411 6.365a16.252 16.252 0 00-1.32-1.429l-8.242 8.243a16.293 16.293 0 001.429 1.32l8.133-8.134zm-5.355 9.937c.98.483 1.946.808 2.849.978 2.16.407 3.603-.1 4.395-.892.793-.792 1.3-2.236.892-4.396a11.173 11.173 0 00-.978-2.848l-7.158 7.158zm-2.563-15.009c1.264.238 2.65.78 4.026 1.634l-7.68 7.68c-.854-1.376-1.395-2.763-1.633-4.026-.407-2.16.099-3.603.891-4.396.793-.792 2.237-1.298 4.396-.892zm12.098 17.386c3.543-3.542 2.21-10.62-2.978-15.807-5.187-5.187-12.264-6.52-15.806-2.978-3.543 3.543-2.21 10.62 2.978 15.807 5.187 5.187 12.264 6.52 15.806 2.978z"/></symbol><symbol viewBox="0 0 24 24" id="icon-facebook" xmlns="http://www.w3.org/2000/svg"><path d="M13.5 8.25v-3a1.5 1.5 0 011.5-1.5h1.5V0h-3A4.5 4.5 0 009 4.5v3.75H6V12h3v12h4.5V12h3L18 8.25h-4.5z"/></symbol><symbol viewBox="0 0 93 93" id="icon-family" xmlns="http://www.w3.org/2000/svg"><g clip-path="url(#fclip0)"><path d="M29.839 63.487l1.34-1.507a16.063 16.063 0 01.065-9.76 18.698 18.698 0 01-23.287-4.342C3.632 51.308.854 56.61.854 62.548v26.745a2.676 2.676 0 002.674 2.675h22.035a7.958 7.958 0 01-.46-2.675V75.92a18.68 18.68 0 014.736-12.433zM22.25 49.174c7.386 0 13.373-5.987 13.373-13.373 0-7.386-5.987-13.373-13.373-13.373-7.385 0-13.373 5.987-13.373 13.373 0 7.386 5.988 13.373 13.373 13.373zm62.793-1.296a18.693 18.693 0 01-23.287 4.34 16.066 16.066 0 01.064 9.762l1.34 1.507a18.68 18.68 0 014.737 12.433v13.373c0 .938-.163 1.838-.46 2.675h22.035a2.676 2.676 0 002.674-2.675V62.547c0-5.937-2.778-11.238-7.103-14.67zM70.75 49.174c7.385 0 13.372-5.987 13.372-13.373 0-7.386-5.987-13.373-13.373-13.373-7.385 0-13.372 5.987-13.372 13.373 0 7.386 5.987 13.373 13.372 13.373zM46.5 73.246c-5.143 0-9.727-2.43-12.665-6.203a13.312 13.312 0 00-3.383 8.877v13.373a2.676 2.676 0 002.675 2.675h26.746a2.676 2.676 0 002.674-2.675V75.92c0-3.404-1.278-6.513-3.382-8.877-2.939 3.772-7.523 6.203-12.665 6.203z"/><path d="M46.5 67.896c5.908 0 10.698-4.79 10.698-10.698 0-5.909-4.79-10.699-10.698-10.699-5.909 0-10.699 4.79-10.699 10.699 0 5.908 4.79 10.698 10.699 10.698zm-7.61-45.291c3.053 2.823 6.08 4.697 6.208 4.776.86.529 1.944.529 2.804 0 .127-.079 3.154-1.953 6.208-4.776 4.416-4.08 6.654-8.047 6.654-11.79 0-8.502-8.453-12.492-14.264-7.77-5.824-4.732-14.265-.709-14.265 7.77 0 3.743 2.24 7.71 6.655 11.79z"/></g><defs><clipPath id="fclip0"><path transform="translate(.854 .854)" d="M0 0h91.293v91.293H0z"/></clipPath></defs></symbol><symbol viewBox="0 0 95 95" id="icon-hands" xmlns="http://www.w3.org/2000/svg"><g clip-path="url(#gclip0)"><path d="M93.57 22.385l-13.413 8.718a13.957 13.957 0 01-9.724 2.113c-10.122-1.546-19.285-5.298-27.1-10.658a5.397 5.397 0 01-2.257-5.56c.535-2.654 2.91-4.347 5.426-4.347h12.197c.827 0 1.553-.62 1.61-1.446a1.558 1.558 0 00-1.555-1.673H46.536c-3.7 0-7.06 2.308-8.24 5.817-.96 2.855-.368 5.92 1.503 8.17.582.7.438 1.749-.308 2.27l-19.75 13.812a5.5 5.5 0 01-7.38-.96 5.541 5.541 0 01.36-7.522l27.86-27.16A11.467 11.467 0 0150.537.883L79.78 6.015a3.862 3.862 0 003.14-.836l4.907-4.104c.904-.753 2.289-.273 2.527.881l3.891 18.805a1.56 1.56 0 01-.676 1.624zM82.278 63.881l-27.86 27.16a11.467 11.467 0 01-9.955 3.075l-29.245-5.131a3.862 3.862 0 00-3.14.836L7.17 93.925c-.898.75-2.287.278-2.527-.881L.754 74.239a1.558 1.558 0 01.676-1.624l13.412-8.718a13.96 13.96 0 019.724-2.113c10.042 1.533 19.296 5.276 27.102 10.658 1.956 1.336 2.933 3.865 2.033 6.343-.65 1.951-2.732 3.564-5.201 3.564H36.248a1.56 1.56 0 000 3.119h12.217c3.7 0 7.059-2.308 8.238-5.817.963-2.858.368-5.923-1.502-8.172a1.556 1.556 0 01.309-2.27L75.258 55.4a5.498 5.498 0 017.381.96 5.54 5.54 0 01-.36 7.522z"/><path d="M40.367 56.286c3.053 2.822 6.08 4.696 6.208 4.775.86.529 1.944.529 2.804 0 .127-.079 3.154-1.953 6.208-4.775 4.416-4.081 6.654-8.048 6.654-11.791 0-8.501-8.453-12.492-14.264-7.77-5.824-4.732-14.265-.709-14.265 7.77 0 3.743 2.24 7.71 6.655 11.79z"/></g><defs><clipPath id="gclip0"><path transform="translate(.712 .712)" d="M0 0h93.575v93.575H0z"/></clipPath></defs></symbol><symbol viewBox="0 0 297 241" id="icon-heart" xmlns="http://www.w3.org/2000/svg"><path d="M223.949 177.246c-37.299 26.856-81.143 38.72-120.288 63.198-10.188-40.62-36.064-61.34-64.188-89.996C1.98 112.157-30.62 11.045 50.241.978c21.596-2.683 42.244 9.917 58.005 24.979 14.814 14.249 26.712 31.335 35.273 49.974C155.935 32.44 199.317-.075 244.106.947c7.959.242 16.119 1.252 23.115 4.956 6.516 3.423 11.666 8.772 16.009 15.078 17.622 25.237 16.423 60.623 2.752 88.192-13.935 27.804-36.231 49.808-62.033 68.073z"/></symbol><symbol viewBox="0 0 62 15" id="icon-heart-separator" xmlns="http://www.w3.org/2000/svg"><path d="M12.615 10.263c-2.002 1.441-4.357 2.078-6.458 3.391-.547-2.18-1.937-3.291-3.447-4.83-2.013-2.054-3.764-7.48.578-8.02 1.16-.144 2.268.532 3.115 1.34a8.838 8.838 0 011.894 2.682c.666-2.334 2.996-4.079 5.4-4.024.428.013.866.067 1.242.266.35.184.626.47.86.81.946 1.354.881 3.252.147 4.732-.748 1.492-1.945 2.673-3.33 3.653zm22.643 0c-2.003 1.441-4.357 2.078-6.46 3.391-.546-2.18-1.935-3.291-3.446-4.83-2.013-2.054-3.763-7.48.578-8.02 1.16-.144 2.269.532 3.115 1.34a8.838 8.838 0 011.894 2.682C31.606 2.492 33.935.747 36.34.802c.427.013.865.067 1.241.266.35.184.627.47.86.81.946 1.354.882 3.252.148 4.732-.749 1.492-1.946 2.673-3.331 3.653zm22.642 0c-2.003 1.441-4.357 2.078-6.459 3.391-.547-2.18-1.936-3.291-3.447-4.83-2.013-2.054-3.763-7.48.579-8.02 1.16-.144 2.268.532 3.114 1.34a8.838 8.838 0 011.894 2.682c.667-2.334 2.996-4.079 5.401-4.024.428.013.866.067 1.241.266.35.184.627.47.86.81.946 1.354.882 3.252.148 4.732-.749 1.492-1.946 2.673-3.331 3.653z"/></symbol><symbol viewBox="0 0 24 24" id="icon-instagram" xmlns="http://www.w3.org/2000/svg"><path d="M16.5 0h-9A7.5 7.5 0 000 7.5v9A7.5 7.5 0 007.5 24h9a7.5 7.5 0 007.5-7.5v-9A7.5 7.5 0 0016.5 0zm5.25 16.5a5.256 5.256 0 01-5.25 5.25h-9a5.256 5.256 0 01-5.25-5.25v-9A5.256 5.256 0 017.5 2.25h9a5.256 5.256 0 015.25 5.25v9z"/><path d="M12 6a6 6 0 100 12 6 6 0 000-12zm0 9.75A3.755 3.755 0 018.25 12 3.754 3.754 0 0112 8.25 3.754 3.754 0 0115.75 12 3.755 3.755 0 0112 15.75zm6.45-9.4a.8.8 0 100-1.6.8.8 0 000 1.6z"/></symbol><symbol viewBox="0 0 93 83" id="icon-life" xmlns="http://www.w3.org/2000/svg"><path d="M46.474 7.888C26.574-9.517 1.274 5.775.859 26.507.753 31.79 2.278 36.936 5.314 41.68H24.99l3.5-5.834c1.016-1.693 3.476-1.748 4.55-.06l7.384 11.605 10.764-22.724c.938-1.983 3.736-2.046 4.771-.123l9.227 17.136h22.447C104.262 15.693 71.4-13.913 46.474 7.888z"/><path d="M61.235 45.623l-7.477-13.886-10.573 22.32c-.9 1.9-3.545 2.065-4.673.292l-7.661-12.04-2.053 3.422a2.674 2.674 0 01-2.293 1.298H9.545c.531.557-2.303-2.271 35.042 34.88a2.674 2.674 0 003.773 0c36.77-36.58 34.512-34.324 35.043-34.88H63.59c-.984 0-1.888-.54-2.355-1.406z"/></symbol><symbol viewBox="0 0 95 95" id="icon-pregnacy" xmlns="http://www.w3.org/2000/svg"><path d="M80.584 14.416C71.747 5.579 59.997.712 47.5.712c-12.498 0-24.247 4.867-33.084 13.704C5.579 23.253.712 35.002.712 47.5c0 12.498 4.867 24.247 13.704 33.084 8.837 8.837 20.586 13.704 33.084 13.704 12.497 0 24.247-4.867 33.084-13.704C89.42 71.747 94.288 59.997 94.288 47.5c0-12.498-4.867-24.247-13.704-33.084zM47.5 88.805c-22.776 0-41.305-18.53-41.305-41.305 0-12.14 5.265-23.072 13.63-30.636l1.258 3.595a15.86 15.86 0 009.344 9.604c5.312 2.024 8.026 7.994 6.063 13.324l-.4.982c-5-2.843-11.837-.306-15.3 5.691h-1.123a5.764 5.764 0 000 11.529h7.021a11.552 11.552 0 002.453 9.416 12.758 12.758 0 009.842 4.64 47.232 47.232 0 0021.403-5.127 23.811 23.811 0 0013.02-21.226c0-.606.214-1.195.609-1.656a13.434 13.434 0 003.233-9.287c-.264-7.074-6.067-12.793-13.145-12.96-7.593-.179-13.805 5.923-13.805 13.476 0 3.852 1.434 6.055 1.434 6.055-3.25 0-10.288 3.06-10.827 9.114l-.04.004c.087-1.754-.178-3.448-.773-4.96l1.493-3.663.03-.078c3.035-8.151-1.109-17.302-9.236-20.398a10.388 10.388 0 01-6.12-6.29l-1.877-5.363A41.068 41.068 0 0147.5 6.196c22.775 0 41.305 18.528 41.305 41.304 0 22.776-18.53 41.305-41.305 41.305z"/></symbol><symbol viewBox="0 0 24 24" id="icon-star-clear" xmlns="http://www.w3.org/2000/svg"><path d="M12.314.733l2.614 6.916c.185.491.633.843 1.164.878l7.086.467c.142.009.254.102.302.256a.394.394 0 01-.114.425l-5.47 4.741a1.408 1.408 0 00-.437 1.395l1.766 7.205a.39.39 0 01-.138.415.298.298 0 01-.365.012l-5.995-3.985a1.309 1.309 0 00-1.454 0l-5.995 3.986a.298.298 0 01-.365-.013.39.39 0 01-.138-.415l1.766-7.205a1.406 1.406 0 00-.437-1.395l-5.47-4.74A.394.394 0 01.52 9.25c.048-.154.16-.247.302-.256l7.086-.467a1.345 1.345 0 001.164-.878L11.686.733c.117-.31.51-.31.628 0z"/></symbol><symbol viewBox="0 0 24 24" id="icon-star-fill" xmlns="http://www.w3.org/2000/svg"><path d="M11.218.557a.827.827 0 011.564 0l2.614 6.916c.12.317.404.533.729.555l7.086.467c.76.05 1.07 1.049.483 1.558l-5.47 4.741a.906.906 0 00-.28.898l1.766 7.205c.19.773-.621 1.39-1.265.963l-5.994-3.986a.809.809 0 00-.902 0L5.555 23.86c-.644.428-1.455-.19-1.265-.963l1.765-7.205a.906.906 0 00-.278-.898l-5.47-4.741c-.588-.509-.278-1.508.482-1.558l7.086-.467a.845.845 0 00.73-.555L11.217.557z"/></symbol><symbol viewBox="0 0 95 73" id="icon-style" xmlns="http://www.w3.org/2000/svg"><path d="M93.292 43.722L84.728 6.949a8.187 8.187 0 00-4.545-5.477 8.162 8.162 0 00-7.116.115l-4.853 2.426a2.743 2.743 0 00-1.227 3.68 2.751 2.751 0 003.68 1.227l4.853-2.427a2.76 2.76 0 012.373-.04 2.718 2.718 0 011.505 1.784l7.267 31.207c-.203-.015-.398-.067-.603-.067H58.304a8.198 8.198 0 00-6.363 3.013c-.7.854-1.18 1.832-1.488 2.857a13.683 13.683 0 00-5.906 0c-.308-1.025-.787-2.004-1.487-2.857a8.199 8.199 0 00-6.364-3.013H8.938c-.205 0-.4.052-.603.067L15.59 8.282a2.739 2.739 0 013.889-1.789l4.853 2.427a2.742 2.742 0 102.453-4.907l-4.853-2.426a8.198 8.198 0 00-7.116-.116c-2.28 1.048-3.937 3.046-4.556 5.523L1.708 43.723A8.164 8.164 0 00.87 49.22l2.408 12.045c1.277 6.387 6.934 11.023 13.447 11.023h12.181c6.514 0 12.17-4.635 13.448-11.023l2.047-10.238a8.148 8.148 0 016.197 0l2.046 10.238c1.278 6.387 6.934 11.023 13.448 11.023h12.18c6.514 0 12.17-4.635 13.448-11.023l2.41-12.045a8.164 8.164 0 00-.837-5.498z"/></symbol><symbol viewBox="0 0 24 24" id="icon-twitter" xmlns="http://www.w3.org/2000/svg"><g clip-path="url(#pclip0)"><path d="M24 4.559c-.892.391-1.843.65-2.835.776a4.893 4.893 0 002.165-2.719 9.833 9.833 0 01-3.12 1.191 4.919 4.919 0 00-8.511 3.365c0 .39.033.764.114 1.121-4.091-.199-7.71-2.16-10.142-5.146a4.954 4.954 0 00-.673 2.487c0 1.704.877 3.214 2.185 4.089A4.859 4.859 0 01.96 9.117v.054a4.943 4.943 0 003.942 4.835 4.93 4.93 0 01-1.29.162 4.35 4.35 0 01-.932-.084c.638 1.948 2.447 3.38 4.598 3.427a9.886 9.886 0 01-6.1 2.099c-.404 0-.791-.018-1.178-.068a13.852 13.852 0 007.548 2.208c9.054 0 14.004-7.5 14.004-14.001 0-.217-.008-.427-.018-.636A9.816 9.816 0 0024 4.559z"/></g><defs><clipPath id="pclip0"><path d="M0 0h24v24H0z"/></clipPath></defs></symbol></svg>