<svg width="243" height="96" viewBox="0 0 243 96" fill="none" xmlns="http://www.w3.org/2000/svg">
<path d="M125.928 30.6233C126.253 30.5258 126.773 30.4283 127.488 30.3308C128.203 30.2008 128.934 30.1359 129.681 30.1359C130.396 30.1359 131.03 30.1846 131.582 30.2821C132.167 30.3796 132.655 30.5745 133.044 30.867C133.434 31.1594 133.727 31.5656 133.922 32.0855C134.117 32.5729 134.214 33.2228 134.214 34.0352V38.8118C135.027 38.4869 135.79 38.2594 136.505 38.1295C137.252 37.9995 138.065 37.9345 138.942 37.9345C140.502 37.9345 141.98 38.2107 143.378 38.7631C144.775 39.3155 146.01 40.1279 147.082 41.2002C148.154 42.24 148.999 43.5398 149.617 45.0995C150.234 46.6592 150.543 48.4627 150.543 50.5098C150.543 52.6219 150.218 54.4741 149.568 56.0663C148.95 57.6261 148.073 58.9259 146.936 59.9657C145.798 61.0055 144.401 61.8016 142.744 62.354C141.119 62.8739 139.316 63.1339 137.334 63.1339C135.189 63.1339 133.369 62.8739 131.875 62.354C130.38 61.8666 129.113 61.2492 128.073 60.5018C126.643 59.4945 125.928 58.1947 125.928 56.6025V30.6233ZM137.334 56.6025C138.828 56.6025 139.982 56.0988 140.794 55.0915C141.639 54.0517 142.062 52.5245 142.062 50.5098C142.062 48.4627 141.639 46.9354 140.794 45.9281C139.949 44.9208 138.812 44.4171 137.382 44.4171C136.733 44.4171 136.164 44.4821 135.676 44.6121C135.222 44.7421 134.718 44.937 134.166 45.197V55.8226C134.523 56.0501 134.945 56.2451 135.433 56.4075C135.953 56.5375 136.586 56.6025 137.334 56.6025ZM163.013 62.3053C162.655 62.3703 162.119 62.4515 161.404 62.549C160.722 62.6789 160.023 62.7439 159.309 62.7439C158.594 62.7439 157.944 62.6952 157.359 62.5977C156.806 62.5002 156.335 62.3053 155.945 62.0128C155.555 61.7204 155.247 61.3304 155.019 60.843C154.824 60.3231 154.727 59.657 154.727 58.8446V30.5745C155.084 30.5095 155.604 30.4283 156.287 30.3308C157.001 30.2008 157.716 30.1359 158.431 30.1359C159.146 30.1359 159.78 30.1846 160.332 30.2821C160.917 30.3796 161.404 30.5745 161.794 30.867C162.184 31.1594 162.477 31.5656 162.672 32.0855C162.899 32.5729 163.013 33.2228 163.013 34.0352V62.3053ZM192.759 50.5098C192.759 52.5245 192.45 54.3279 191.832 55.9201C191.215 57.4799 190.338 58.7959 189.2 59.8682C188.096 60.9405 186.763 61.7529 185.204 62.3053C183.644 62.8577 181.905 63.1339 179.988 63.1339C178.071 63.1339 176.333 62.8414 174.773 62.2565C173.213 61.6716 171.865 60.843 170.727 59.7707C169.623 58.6659 168.761 57.3336 168.144 55.7739C167.527 54.2142 167.218 52.4595 167.218 50.5098C167.218 48.5926 167.527 46.8542 168.144 45.2945C168.761 43.7347 169.623 42.4187 170.727 41.3464C171.865 40.2416 173.213 39.3967 174.773 38.8118C176.333 38.2269 178.071 37.9345 179.988 37.9345C181.905 37.9345 183.644 38.2432 185.204 38.8606C186.763 39.4455 188.096 40.2903 189.2 41.3951C190.338 42.4675 191.215 43.7835 191.832 45.3432C192.45 46.9029 192.759 48.6251 192.759 50.5098ZM175.699 50.5098C175.699 52.492 176.073 54.0192 176.82 55.0915C177.6 56.1313 178.672 56.6512 180.037 56.6512C181.402 56.6512 182.442 56.1151 183.156 55.0428C183.904 53.9705 184.278 52.4595 184.278 50.5098C184.278 48.5602 183.904 47.0654 183.156 46.0256C182.409 44.9533 181.353 44.4171 179.988 44.4171C178.623 44.4171 177.567 44.9533 176.82 46.0256C176.073 47.0654 175.699 48.5602 175.699 50.5098ZM216.785 55.2865C216.785 57.7561 215.859 59.6895 214.007 61.0867C212.155 62.484 209.425 63.1826 205.818 63.1826C204.453 63.1826 203.186 63.0851 202.016 62.8902C200.847 62.6952 199.839 62.4027 198.994 62.0128C198.182 61.5904 197.532 61.0705 197.045 60.4531C196.59 59.8357 196.362 59.1046 196.362 58.2597C196.362 57.4799 196.525 56.83 196.85 56.3101C197.175 55.7577 197.565 55.3027 198.02 54.9453C198.962 55.4652 200.034 55.9364 201.237 56.3588C202.471 56.7487 203.885 56.9437 205.477 56.9437C206.484 56.9437 207.248 56.7975 207.768 56.505C208.32 56.2126 208.596 55.8226 208.596 55.3352C208.596 54.8803 208.402 54.5229 208.012 54.2629C207.622 54.003 206.972 53.7917 206.062 53.6293L204.6 53.3368C201.773 52.7844 199.661 51.9233 198.263 50.7535C196.899 49.5512 196.216 47.8453 196.216 45.6357C196.216 44.4334 196.476 43.3448 196.996 42.37C197.516 41.3951 198.247 40.5828 199.189 39.9329C200.132 39.283 201.253 38.7794 202.553 38.4219C203.885 38.0645 205.347 37.8858 206.939 37.8858C208.142 37.8858 209.263 37.9832 210.302 38.1782C211.375 38.3407 212.301 38.6006 213.081 38.9581C213.861 39.3155 214.478 39.7867 214.933 40.3716C215.388 40.924 215.615 41.5901 215.615 42.37C215.615 43.1173 215.469 43.7672 215.177 44.3196C214.917 44.8395 214.575 45.2782 214.153 45.6357C213.893 45.4732 213.503 45.3107 212.983 45.1482C212.463 44.9533 211.895 44.7908 211.277 44.6608C210.66 44.4984 210.026 44.3684 209.376 44.2709C208.759 44.1734 208.19 44.1247 207.67 44.1247C206.598 44.1247 205.769 44.2547 205.185 44.5146C204.6 44.7421 204.307 45.1158 204.307 45.6357C204.307 45.9931 204.47 46.2855 204.795 46.513C205.12 46.7405 205.737 46.9517 206.647 47.1466L208.158 47.4878C211.277 48.2027 213.487 49.1938 214.787 50.4611C216.119 51.6959 216.785 53.3043 216.785 55.2865ZM240.775 55.2865C240.775 57.7561 239.849 59.6895 237.997 61.0867C236.145 62.484 233.415 63.1826 229.808 63.1826C228.443 63.1826 227.176 63.0851 226.006 62.8902C224.837 62.6952 223.829 62.4027 222.984 62.0128C222.172 61.5904 221.522 61.0705 221.035 60.4531C220.58 59.8357 220.352 59.1046 220.352 58.2597C220.352 57.4799 220.515 56.83 220.84 56.3101C221.165 55.7577 221.555 55.3027 222.01 54.9453C222.952 55.4652 224.024 55.9364 225.226 56.3588C226.461 56.7487 227.875 56.9437 229.467 56.9437C230.474 56.9437 231.238 56.7975 231.758 56.505C232.31 56.2126 232.586 55.8226 232.586 55.3352C232.586 54.8803 232.391 54.5229 232.002 54.2629C231.612 54.003 230.962 53.7917 230.052 53.6293L228.59 53.3368C225.763 52.7844 223.651 51.9233 222.253 50.7535C220.888 49.5512 220.206 47.8453 220.206 45.6357C220.206 44.4334 220.466 43.3448 220.986 42.37C221.506 41.3951 222.237 40.5828 223.179 39.9329C224.122 39.283 225.243 38.7794 226.542 38.4219C227.875 38.0645 229.337 37.8858 230.929 37.8858C232.132 37.8858 233.253 37.9832 234.292 38.1782C235.365 38.3407 236.291 38.6006 237.071 38.9581C237.851 39.3155 238.468 39.7867 238.923 40.3716C239.378 40.924 239.605 41.5901 239.605 42.37C239.605 43.1173 239.459 43.7672 239.167 44.3196C238.907 44.8395 238.565 45.2782 238.143 45.6357C237.883 45.4732 237.493 45.3107 236.973 45.1482C236.453 44.9533 235.885 44.7908 235.267 44.6608C234.65 44.4984 234.016 44.3684 233.366 44.2709C232.749 44.1734 232.18 44.1247 231.66 44.1247C230.588 44.1247 229.759 44.2547 229.175 44.5146C228.59 44.7421 228.297 45.1158 228.297 45.6357C228.297 45.9931 228.46 46.2855 228.785 46.513C229.11 46.7405 229.727 46.9517 230.637 47.1466L232.148 47.4878C235.267 48.2027 237.477 49.1938 238.777 50.4611C240.109 51.6959 240.775 53.3043 240.775 55.2865Z" fill="#F5C1BC"/>
<path fill-rule="evenodd" clip-rule="evenodd" d="M49.5427 96C76.0523 96 97.5427 74.5097 97.5427 48C97.5427 21.4903 76.0523 0 49.5427 0C23.033 0 1.54266 21.4903 1.54266 48C1.54266 61.0684 6.76517 72.917 15.237 81.5726L0.77309 92.4576C-0.707773 93.5721 0.0794688 95.9301 1.93283 95.9314L47.6526 95.9635C48.2796 95.9877 48.9097 96 49.5427 96Z" fill="#F5C1BC"/>
<path d="M34.5212 25.4122C34.9474 25.2844 35.6293 25.1567 36.5669 25.0289C37.5045 24.8586 38.4634 24.7734 39.4436 24.7734C40.3812 24.7734 41.2122 24.8373 41.9367 24.965C42.7038 25.0928 43.3431 25.3483 43.8545 25.7315C44.3659 26.1147 44.7495 26.647 45.0052 27.3283C45.2609 27.967 45.3887 28.8186 45.3887 29.8832V36.1426C46.4542 35.7168 47.4557 35.4187 48.3933 35.2484C49.3735 35.0781 50.4389 34.9929 51.5896 34.9929C53.6352 34.9929 55.5743 35.3549 57.4069 36.0787C59.2394 36.8026 60.8589 37.8671 62.2653 39.2723C63.6716 40.6349 64.7797 42.3382 65.5894 44.3821C66.3992 46.426 66.804 48.7892 66.804 51.4718C66.804 54.2396 66.3779 56.6667 65.5255 58.7532C64.7158 60.7971 63.5651 62.5004 62.0735 63.863C60.5819 65.2256 58.7493 66.2688 56.5758 66.9927C54.4449 67.674 52.0797 68.0146 49.48 68.0146C46.6672 68.0146 44.2807 67.674 42.3203 66.9927C40.3598 66.354 38.6978 65.5449 37.334 64.5655C35.4588 63.2455 34.5212 61.5423 34.5212 59.4558V25.4122Z" fill="#1A2231"/>
<path d="M55.0464 56.1415C52.853 57.7199 50.2748 58.4171 47.9729 59.8557C47.3738 57.4685 45.8522 56.2507 44.1984 54.5666C41.9936 52.3162 40.0766 46.3738 44.8316 45.7821C46.1015 45.6245 47.3157 46.3649 48.2425 47.2502C49.1137 48.0876 49.8133 49.0917 50.3168 50.1871C51.0469 47.6311 53.5979 45.7203 56.2317 45.7803C56.6997 45.7946 57.1796 45.8539 57.591 46.0716C57.9741 46.2727 58.277 46.5871 58.5324 46.9577C59.5686 48.4409 59.4981 50.5206 58.6942 52.1408C57.8748 53.7749 56.5637 55.0681 55.0464 56.1415Z" fill="#F5C1BC"/>
</svg>
