<svg width="782" height="318" viewBox="0 0 782 318" fill="none" xmlns="http://www.w3.org/2000/svg">
<path d="M162.881 317.876C250.816 317.876 322.1 246.916 322.1 159.382C322.1 71.8487 250.816 0.888672 162.881 0.888672C74.9472 0.888672 3.66249 71.8487 3.66249 159.382C3.66249 203.361 21.6568 243.157 50.7162 271.871L2.12792 308.267C-1.94485 311.318 0.219058 317.771 5.316 317.774L162.652 317.876C162.729 317.876 162.805 317.876 162.881 317.876Z" fill="#F5C1BC"/>
<path d="M113.062 84.6561C114.471 84.2335 116.726 83.8108 119.826 83.3882C122.926 82.8247 126.097 82.543 129.338 82.543C132.438 82.543 135.186 82.7543 137.581 83.1769C140.118 83.5995 142.231 84.4448 143.922 85.7126C145.613 86.9805 146.881 88.7414 147.727 90.9954C148.572 93.1086 148.995 95.9261 148.995 99.4479V120.157C152.518 118.748 155.83 117.762 158.93 117.198C162.171 116.635 165.694 116.353 169.498 116.353C176.262 116.353 182.674 117.55 188.733 119.945C194.792 122.34 200.147 125.862 204.797 130.511C209.448 135.019 213.111 140.654 215.789 147.416C218.466 154.178 219.805 161.996 219.805 170.871C219.805 180.028 218.396 188.058 215.577 194.961C212.9 201.723 209.095 207.358 204.163 211.866C199.231 216.374 193.172 219.825 185.985 222.22C178.94 224.474 171.119 225.601 162.523 225.601C153.223 225.601 145.331 224.474 138.849 222.22C132.367 220.107 126.872 217.431 122.362 214.19C116.162 209.823 113.062 204.188 113.062 197.285V84.6561Z" fill="#264066"/>
<path d="M180.931 186.323C173.679 191.545 165.154 193.851 157.543 198.611C155.562 190.713 150.53 186.684 145.062 181.112C137.772 173.667 131.433 154.007 147.156 152.05C151.355 151.528 155.369 153.978 158.434 156.907C161.314 159.677 163.628 162.999 165.292 166.623C167.707 158.167 176.141 151.845 184.85 152.044C186.397 152.091 187.984 152.287 189.344 153.008C190.611 153.673 191.613 154.713 192.457 155.939C195.883 160.846 195.65 167.727 192.992 173.087C190.283 178.493 185.948 182.771 180.931 186.323Z" fill="#F5C1BC"/>
<path d="M402.751 106.494C403.824 106.172 405.541 105.85 407.902 105.528C410.263 105.099 412.677 104.885 415.145 104.885C417.506 104.885 419.598 105.045 421.422 105.367C423.354 105.689 424.963 106.333 426.251 107.299C427.538 108.265 428.504 109.606 429.148 111.323C429.792 112.932 430.114 115.078 430.114 117.761V133.534C432.796 132.461 435.318 131.71 437.679 131.281C440.147 130.852 442.829 130.637 445.726 130.637C450.877 130.637 455.759 131.549 460.373 133.374C464.987 135.198 469.065 137.88 472.606 141.421C476.147 144.855 478.937 149.147 480.975 154.298C483.014 159.448 484.034 165.404 484.034 172.164C484.034 179.138 482.961 185.255 480.815 190.512C478.776 195.663 475.879 199.955 472.123 203.389C468.367 206.823 463.753 209.451 458.281 211.276C452.916 212.992 446.96 213.851 440.415 213.851C433.333 213.851 427.324 212.992 422.388 211.276C417.452 209.666 413.267 207.627 409.833 205.159C405.112 201.833 402.751 197.541 402.751 192.283V106.494ZM440.415 192.283C445.351 192.283 449.16 190.62 451.843 187.293C454.633 183.86 456.027 178.816 456.027 172.164C456.027 165.404 454.633 160.36 451.843 157.034C449.053 153.707 445.297 152.044 440.576 152.044C438.43 152.044 436.552 152.259 434.942 152.688C433.44 153.117 431.777 153.761 429.953 154.62V189.708C431.133 190.459 432.528 191.103 434.138 191.639C435.854 192.068 437.947 192.283 440.415 192.283Z" fill="#F5C1BC"/>
<path d="M525.213 211.115C524.033 211.329 522.262 211.598 519.901 211.919C517.648 212.349 515.341 212.563 512.98 212.563C510.62 212.563 508.474 212.402 506.542 212.08C504.718 211.758 503.162 211.115 501.874 210.149C500.587 209.183 499.567 207.896 498.816 206.286C498.172 204.569 497.851 202.369 497.851 199.687V106.333C499.031 106.119 500.748 105.85 503.001 105.528C505.362 105.099 507.722 104.885 510.083 104.885C512.444 104.885 514.536 105.045 516.36 105.367C518.292 105.689 519.901 106.333 521.189 107.299C522.477 108.265 523.442 109.606 524.086 111.323C524.837 112.932 525.213 115.078 525.213 117.761V211.115Z" fill="#F5C1BC"/>
<path d="M623.439 172.164C623.439 178.816 622.42 184.772 620.381 190.03C618.342 195.18 615.445 199.526 611.69 203.067C608.041 206.608 603.642 209.291 598.491 211.115C593.341 212.939 587.6 213.851 581.269 213.851C574.938 213.851 569.198 212.885 564.047 210.954C558.896 209.022 554.443 206.286 550.688 202.745C547.039 199.097 544.196 194.697 542.157 189.547C540.118 184.396 539.099 178.602 539.099 172.164C539.099 165.833 540.118 160.092 542.157 154.941C544.196 149.791 547.039 145.445 550.688 141.904C554.443 138.256 558.896 135.466 564.047 133.534C569.198 131.603 574.938 130.637 581.269 130.637C587.6 130.637 593.341 131.657 598.491 133.695C603.642 135.627 608.041 138.417 611.69 142.065C615.445 145.606 618.342 149.952 620.381 155.102C622.42 160.253 623.439 165.94 623.439 172.164ZM567.105 172.164C567.105 178.709 568.339 183.752 570.807 187.293C573.382 190.727 576.923 192.444 581.43 192.444C585.937 192.444 589.371 190.673 591.731 187.132C594.199 183.591 595.433 178.602 595.433 172.164C595.433 165.725 594.199 160.789 591.731 157.356C589.263 153.815 585.776 152.044 581.269 152.044C576.762 152.044 573.275 153.815 570.807 157.356C568.339 160.789 567.105 165.725 567.105 172.164Z" fill="#F5C1BC"/>
<path d="M702.78 187.937C702.78 196.092 699.722 202.477 693.606 207.091C687.489 211.705 678.476 214.012 666.565 214.012C662.058 214.012 657.874 213.69 654.011 213.046C650.148 212.402 646.821 211.437 644.031 210.149C641.349 208.754 639.203 207.037 637.593 204.998C636.091 202.96 635.34 200.545 635.34 197.755C635.34 195.18 635.876 193.034 636.949 191.317C638.022 189.493 639.31 187.991 640.812 186.81C643.924 188.527 647.465 190.083 651.435 191.478C655.513 192.766 660.181 193.41 665.438 193.41C668.765 193.41 671.286 192.927 673.003 191.961C674.827 190.995 675.74 189.708 675.74 188.098C675.74 186.596 675.096 185.416 673.808 184.557C672.52 183.699 670.374 183.001 667.37 182.465L662.541 181.499C653.206 179.675 646.231 176.831 641.617 172.968C637.11 168.998 634.857 163.365 634.857 156.068C634.857 152.098 635.715 148.503 637.432 145.284C639.149 142.065 641.563 139.382 644.675 137.236C647.787 135.09 651.489 133.427 655.781 132.247C660.181 131.066 665.009 130.476 670.267 130.476C674.237 130.476 677.939 130.798 681.373 131.442C684.914 131.979 687.972 132.837 690.547 134.017C693.123 135.198 695.161 136.754 696.664 138.685C698.166 140.509 698.917 142.709 698.917 145.284C698.917 147.752 698.434 149.898 697.468 151.722C696.61 153.439 695.483 154.888 694.088 156.068C693.23 155.532 691.942 154.995 690.225 154.459C688.509 153.815 686.631 153.278 684.592 152.849C682.553 152.313 680.461 151.883 678.315 151.561C676.276 151.239 674.398 151.079 672.681 151.079C669.14 151.079 666.404 151.508 664.473 152.366C662.541 153.117 661.576 154.351 661.576 156.068C661.576 157.248 662.112 158.214 663.185 158.965C664.258 159.716 666.297 160.414 669.301 161.058L674.291 162.184C684.592 164.545 691.889 167.818 696.181 172.003C700.58 176.08 702.78 181.392 702.78 187.937Z" fill="#F5C1BC"/>
<path d="M782 187.937C782 196.092 778.942 202.477 772.825 207.091C766.709 211.705 757.696 214.012 745.785 214.012C741.278 214.012 737.094 213.69 733.231 213.046C729.368 212.402 726.041 211.437 723.251 210.149C720.569 208.754 718.423 207.037 716.813 204.998C715.311 202.96 714.56 200.545 714.56 197.755C714.56 195.18 715.096 193.034 716.169 191.317C717.242 189.493 718.53 187.991 720.032 186.81C723.144 188.527 726.685 190.083 730.655 191.478C734.733 192.766 739.401 193.41 744.658 193.41C747.985 193.41 750.506 192.927 752.223 191.961C754.047 190.995 754.959 189.708 754.959 188.098C754.959 186.596 754.316 185.416 753.028 184.557C751.74 183.699 749.594 183.001 746.59 182.465L741.761 181.499C732.426 179.675 725.451 176.831 720.837 172.968C716.33 168.998 714.077 163.365 714.077 156.068C714.077 152.098 714.935 148.503 716.652 145.284C718.369 142.065 720.783 139.382 723.895 137.236C727.007 135.09 730.709 133.427 735.001 132.247C739.401 131.066 744.229 130.476 749.487 130.476C753.457 130.476 757.159 130.798 760.593 131.442C764.134 131.979 767.192 132.837 769.767 134.017C772.343 135.198 774.381 136.754 775.884 138.685C777.386 140.509 778.137 142.709 778.137 145.284C778.137 147.752 777.654 149.898 776.688 151.722C775.83 153.439 774.703 154.888 773.308 156.068C772.45 155.532 771.162 154.995 769.445 154.459C767.729 153.815 765.851 153.278 763.812 152.849C761.773 152.313 759.681 151.883 757.535 151.561C755.496 151.239 753.618 151.079 751.901 151.079C748.36 151.079 745.624 151.508 743.693 152.366C741.761 153.117 740.795 154.351 740.795 156.068C740.795 157.248 741.332 158.214 742.405 158.965C743.478 159.716 745.517 160.414 748.521 161.058L753.511 162.184C763.812 164.545 771.109 167.818 775.401 172.003C779.8 176.08 782 181.392 782 187.937Z" fill="#F5C1BC"/>
</svg>
